<?xml version="1.0" encoding="utf-8" standalone="no"?>
<!DOCTYPE svg PUBLIC "-//W3C//DTD SVG 1.1//EN"
  "http://www.w3.org/Graphics/SVG/1.1/DTD/svg11.dtd">
<!-- Created with matplotlib (https://matplotlib.org/) -->
<svg height="360pt" version="1.1" viewBox="0 0 1080 360" width="1080pt" xmlns="http://www.w3.org/2000/svg" xmlns:xlink="http://www.w3.org/1999/xlink">
 <metadata>
  <rdf:RDF xmlns:cc="http://creativecommons.org/ns#" xmlns:dc="http://purl.org/dc/elements/1.1/" xmlns:rdf="http://www.w3.org/1999/02/22-rdf-syntax-ns#">
   <cc:Work>
    <dc:type rdf:resource="http://purl.org/dc/dcmitype/StillImage"/>
    <dc:date>2021-09-17T14:58:13.958993</dc:date>
    <dc:format>image/svg+xml</dc:format>
    <dc:creator>
     <cc:Agent>
      <dc:title>Matplotlib v3.3.4, https://matplotlib.org/</dc:title>
     </cc:Agent>
    </dc:creator>
   </cc:Work>
  </rdf:RDF>
 </metadata>
 <defs>
  <style type="text/css">*{stroke-linecap:butt;stroke-linejoin:round;}</style>
 </defs>
 <g id="figure_1">
  <g id="patch_1">
   <path d="M 0 360 
L 1080 360 
L 1080 0 
L 0 0 
z
" style="fill:none;"/>
  </g>
  <g id="axes_1">
   <g id="patch_2">
    <path d="M 135 315 
L 515.454545 315 
L 515.454545 43.2 
L 135 43.2 
z
" style="fill:#ffffff;"/>
   </g>
   <g id="matplotlib.axis_1">
    <g id="xtick_1">
     <g id="line2d_1">
      <defs>
       <path d="M 0 0 
L 0 3.5 
" id="mb4a8bd42e3" style="stroke:#000000;stroke-width:0.8;"/>
      </defs>
      <g>
       <use style="stroke:#000000;stroke-width:0.8;" x="258.839517" xlink:href="#mb4a8bd42e3" y="315"/>
      </g>
     </g>
     <g id="text_1">
      <!-- $\mathdefault{10^{1}}$ -->
      <g transform="translate(250.039517 329.598437)scale(0.1 -0.1)">
       <defs>
        <path d="M 12.40625 8.296875 
L 28.515625 8.296875 
L 28.515625 63.921875 
L 10.984375 60.40625 
L 10.984375 69.390625 
L 28.421875 72.90625 
L 38.28125 72.90625 
L 38.28125 8.296875 
L 54.390625 8.296875 
L 54.390625 0 
L 12.40625 0 
z
" id="DejaVuSans-49"/>
        <path d="M 31.78125 66.40625 
Q 24.171875 66.40625 20.328125 58.90625 
Q 16.5 51.421875 16.5 36.375 
Q 16.5 21.390625 20.328125 13.890625 
Q 24.171875 6.390625 31.78125 6.390625 
Q 39.453125 6.390625 43.28125 13.890625 
Q 47.125 21.390625 47.125 36.375 
Q 47.125 51.421875 43.28125 58.90625 
Q 39.453125 66.40625 31.78125 66.40625 
z
M 31.78125 74.21875 
Q 44.046875 74.21875 50.515625 64.515625 
Q 56.984375 54.828125 56.984375 36.375 
Q 56.984375 17.96875 50.515625 8.265625 
Q 44.046875 -1.421875 31.78125 -1.421875 
Q 19.53125 -1.421875 13.0625 8.265625 
Q 6.59375 17.96875 6.59375 36.375 
Q 6.59375 54.828125 13.0625 64.515625 
Q 19.53125 74.21875 31.78125 74.21875 
z
" id="DejaVuSans-48"/>
       </defs>
       <use transform="translate(0 0.684375)" xlink:href="#DejaVuSans-49"/>
       <use transform="translate(63.623047 0.684375)" xlink:href="#DejaVuSans-48"/>
       <use transform="translate(128.203125 38.965625)scale(0.7)" xlink:href="#DejaVuSans-49"/>
      </g>
     </g>
    </g>
    <g id="xtick_2">
     <g id="line2d_2">
      <g>
       <use style="stroke:#000000;stroke-width:0.8;" x="388.157393" xlink:href="#mb4a8bd42e3" y="315"/>
      </g>
     </g>
     <g id="text_2">
      <!-- $\mathdefault{10^{2}}$ -->
      <g transform="translate(379.357393 329.598437)scale(0.1 -0.1)">
       <defs>
        <path d="M 19.1875 8.296875 
L 53.609375 8.296875 
L 53.609375 0 
L 7.328125 0 
L 7.328125 8.296875 
Q 12.9375 14.109375 22.625 23.890625 
Q 32.328125 33.6875 34.8125 36.53125 
Q 39.546875 41.84375 41.421875 45.53125 
Q 43.3125 49.21875 43.3125 52.78125 
Q 43.3125 58.59375 39.234375 62.25 
Q 35.15625 65.921875 28.609375 65.921875 
Q 23.96875 65.921875 18.8125 64.3125 
Q 13.671875 62.703125 7.8125 59.421875 
L 7.8125 69.390625 
Q 13.765625 71.78125 18.9375 73 
Q 24.125 74.21875 28.421875 74.21875 
Q 39.75 74.21875 46.484375 68.546875 
Q 53.21875 62.890625 53.21875 53.421875 
Q 53.21875 48.921875 51.53125 44.890625 
Q 49.859375 40.875 45.40625 35.40625 
Q 44.1875 33.984375 37.640625 27.21875 
Q 31.109375 20.453125 19.1875 8.296875 
z
" id="DejaVuSans-50"/>
       </defs>
       <use transform="translate(0 0.765625)" xlink:href="#DejaVuSans-49"/>
       <use transform="translate(63.623047 0.765625)" xlink:href="#DejaVuSans-48"/>
       <use transform="translate(128.203125 39.046875)scale(0.7)" xlink:href="#DejaVuSans-50"/>
      </g>
     </g>
    </g>
    <g id="xtick_3">
     <g id="line2d_3">
      <defs>
       <path d="M 0 0 
L 0 2 
" id="m22a5f21118" style="stroke:#000000;stroke-width:0.6;"/>
      </defs>
      <g>
       <use style="stroke:#000000;stroke-width:0.6;" x="168.4502" xlink:href="#m22a5f21118" y="315"/>
      </g>
     </g>
    </g>
    <g id="xtick_4">
     <g id="line2d_4">
      <g>
       <use style="stroke:#000000;stroke-width:0.6;" x="191.221948" xlink:href="#m22a5f21118" y="315"/>
      </g>
     </g>
    </g>
    <g id="xtick_5">
     <g id="line2d_5">
      <g>
       <use style="stroke:#000000;stroke-width:0.6;" x="207.37876" xlink:href="#m22a5f21118" y="315"/>
      </g>
     </g>
    </g>
    <g id="xtick_6">
     <g id="line2d_6">
      <g>
       <use style="stroke:#000000;stroke-width:0.6;" x="219.910957" xlink:href="#m22a5f21118" y="315"/>
      </g>
     </g>
    </g>
    <g id="xtick_7">
     <g id="line2d_7">
      <g>
       <use style="stroke:#000000;stroke-width:0.6;" x="230.150508" xlink:href="#m22a5f21118" y="315"/>
      </g>
     </g>
    </g>
    <g id="xtick_8">
     <g id="line2d_8">
      <g>
       <use style="stroke:#000000;stroke-width:0.6;" x="238.807924" xlink:href="#m22a5f21118" y="315"/>
      </g>
     </g>
    </g>
    <g id="xtick_9">
     <g id="line2d_9">
      <g>
       <use style="stroke:#000000;stroke-width:0.6;" x="246.30732" xlink:href="#m22a5f21118" y="315"/>
      </g>
     </g>
    </g>
    <g id="xtick_10">
     <g id="line2d_10">
      <g>
       <use style="stroke:#000000;stroke-width:0.6;" x="252.922255" xlink:href="#m22a5f21118" y="315"/>
      </g>
     </g>
    </g>
    <g id="xtick_11">
     <g id="line2d_11">
      <g>
       <use style="stroke:#000000;stroke-width:0.6;" x="297.768076" xlink:href="#m22a5f21118" y="315"/>
      </g>
     </g>
    </g>
    <g id="xtick_12">
     <g id="line2d_12">
      <g>
       <use style="stroke:#000000;stroke-width:0.6;" x="320.539824" xlink:href="#m22a5f21118" y="315"/>
      </g>
     </g>
    </g>
    <g id="xtick_13">
     <g id="line2d_13">
      <g>
       <use style="stroke:#000000;stroke-width:0.6;" x="336.696636" xlink:href="#m22a5f21118" y="315"/>
      </g>
     </g>
    </g>
    <g id="xtick_14">
     <g id="line2d_14">
      <g>
       <use style="stroke:#000000;stroke-width:0.6;" x="349.228833" xlink:href="#m22a5f21118" y="315"/>
      </g>
     </g>
    </g>
    <g id="xtick_15">
     <g id="line2d_15">
      <g>
       <use style="stroke:#000000;stroke-width:0.6;" x="359.468384" xlink:href="#m22a5f21118" y="315"/>
      </g>
     </g>
    </g>
    <g id="xtick_16">
     <g id="line2d_16">
      <g>
       <use style="stroke:#000000;stroke-width:0.6;" x="368.1258" xlink:href="#m22a5f21118" y="315"/>
      </g>
     </g>
    </g>
    <g id="xtick_17">
     <g id="line2d_17">
      <g>
       <use style="stroke:#000000;stroke-width:0.6;" x="375.625196" xlink:href="#m22a5f21118" y="315"/>
      </g>
     </g>
    </g>
    <g id="xtick_18">
     <g id="line2d_18">
      <g>
       <use style="stroke:#000000;stroke-width:0.6;" x="382.240131" xlink:href="#m22a5f21118" y="315"/>
      </g>
     </g>
    </g>
    <g id="xtick_19">
     <g id="line2d_19">
      <g>
       <use style="stroke:#000000;stroke-width:0.6;" x="427.085952" xlink:href="#m22a5f21118" y="315"/>
      </g>
     </g>
    </g>
    <g id="xtick_20">
     <g id="line2d_20">
      <g>
       <use style="stroke:#000000;stroke-width:0.6;" x="449.8577" xlink:href="#m22a5f21118" y="315"/>
      </g>
     </g>
    </g>
    <g id="xtick_21">
     <g id="line2d_21">
      <g>
       <use style="stroke:#000000;stroke-width:0.6;" x="466.014512" xlink:href="#m22a5f21118" y="315"/>
      </g>
     </g>
    </g>
    <g id="xtick_22">
     <g id="line2d_22">
      <g>
       <use style="stroke:#000000;stroke-width:0.6;" x="478.546709" xlink:href="#m22a5f21118" y="315"/>
      </g>
     </g>
    </g>
    <g id="xtick_23">
     <g id="line2d_23">
      <g>
       <use style="stroke:#000000;stroke-width:0.6;" x="488.78626" xlink:href="#m22a5f21118" y="315"/>
      </g>
     </g>
    </g>
    <g id="xtick_24">
     <g id="line2d_24">
      <g>
       <use style="stroke:#000000;stroke-width:0.6;" x="497.443676" xlink:href="#m22a5f21118" y="315"/>
      </g>
     </g>
    </g>
    <g id="xtick_25">
     <g id="line2d_25">
      <g>
       <use style="stroke:#000000;stroke-width:0.6;" x="504.943072" xlink:href="#m22a5f21118" y="315"/>
      </g>
     </g>
    </g>
    <g id="xtick_26">
     <g id="line2d_26">
      <g>
       <use style="stroke:#000000;stroke-width:0.6;" x="511.558007" xlink:href="#m22a5f21118" y="315"/>
      </g>
     </g>
    </g>
   </g>
   <g id="matplotlib.axis_2">
    <g id="ytick_1">
     <g id="line2d_27">
      <defs>
       <path d="M 0 0 
L -3.5 0 
" id="m4691912ac4" style="stroke:#000000;stroke-width:0.8;"/>
      </defs>
      <g>
       <use style="stroke:#000000;stroke-width:0.8;" x="135" xlink:href="#m4691912ac4" y="315"/>
      </g>
     </g>
     <g id="text_3">
      <!-- $\mathdefault{10^{-5}}$ -->
      <g transform="translate(104.5 318.799219)scale(0.1 -0.1)">
       <defs>
        <path d="M 10.59375 35.5 
L 73.1875 35.5 
L 73.1875 27.203125 
L 10.59375 27.203125 
z
" id="DejaVuSans-8722"/>
        <path d="M 10.796875 72.90625 
L 49.515625 72.90625 
L 49.515625 64.59375 
L 19.828125 64.59375 
L 19.828125 46.734375 
Q 21.96875 47.46875 24.109375 47.828125 
Q 26.265625 48.1875 28.421875 48.1875 
Q 40.625 48.1875 47.75 41.5 
Q 54.890625 34.8125 54.890625 23.390625 
Q 54.890625 11.625 47.5625 5.09375 
Q 40.234375 -1.421875 26.90625 -1.421875 
Q 22.3125 -1.421875 17.546875 -0.640625 
Q 12.796875 0.140625 7.71875 1.703125 
L 7.71875 11.625 
Q 12.109375 9.234375 16.796875 8.0625 
Q 21.484375 6.890625 26.703125 6.890625 
Q 35.15625 6.890625 40.078125 11.328125 
Q 45.015625 15.765625 45.015625 23.390625 
Q 45.015625 31 40.078125 35.4375 
Q 35.15625 39.890625 26.703125 39.890625 
Q 22.75 39.890625 18.8125 39.015625 
Q 14.890625 38.140625 10.796875 36.28125 
z
" id="DejaVuSans-53"/>
       </defs>
       <use transform="translate(0 0.684375)" xlink:href="#DejaVuSans-49"/>
       <use transform="translate(63.623047 0.684375)" xlink:href="#DejaVuSans-48"/>
       <use transform="translate(128.203125 38.965625)scale(0.7)" xlink:href="#DejaVuSans-8722"/>
       <use transform="translate(186.855469 38.965625)scale(0.7)" xlink:href="#DejaVuSans-53"/>
      </g>
     </g>
    </g>
    <g id="ytick_2">
     <g id="line2d_28">
      <g>
       <use style="stroke:#000000;stroke-width:0.8;" x="135" xlink:href="#m4691912ac4" y="252.982777"/>
      </g>
     </g>
     <g id="text_4">
      <!-- $\mathdefault{10^{-4}}$ -->
      <g transform="translate(104.5 256.781996)scale(0.1 -0.1)">
       <defs>
        <path d="M 37.796875 64.3125 
L 12.890625 25.390625 
L 37.796875 25.390625 
z
M 35.203125 72.90625 
L 47.609375 72.90625 
L 47.609375 25.390625 
L 58.015625 25.390625 
L 58.015625 17.1875 
L 47.609375 17.1875 
L 47.609375 0 
L 37.796875 0 
L 37.796875 17.1875 
L 4.890625 17.1875 
L 4.890625 26.703125 
z
" id="DejaVuSans-52"/>
       </defs>
       <use transform="translate(0 0.684375)" xlink:href="#DejaVuSans-49"/>
       <use transform="translate(63.623047 0.684375)" xlink:href="#DejaVuSans-48"/>
       <use transform="translate(128.203125 38.965625)scale(0.7)" xlink:href="#DejaVuSans-8722"/>
       <use transform="translate(186.855469 38.965625)scale(0.7)" xlink:href="#DejaVuSans-52"/>
      </g>
     </g>
    </g>
    <g id="ytick_3">
     <g id="line2d_29">
      <g>
       <use style="stroke:#000000;stroke-width:0.8;" x="135" xlink:href="#m4691912ac4" y="190.965555"/>
      </g>
     </g>
     <g id="text_5">
      <!-- $\mathdefault{10^{-3}}$ -->
      <g transform="translate(104.5 194.764774)scale(0.1 -0.1)">
       <defs>
        <path d="M 40.578125 39.3125 
Q 47.65625 37.796875 51.625 33 
Q 55.609375 28.21875 55.609375 21.1875 
Q 55.609375 10.40625 48.1875 4.484375 
Q 40.765625 -1.421875 27.09375 -1.421875 
Q 22.515625 -1.421875 17.65625 -0.515625 
Q 12.796875 0.390625 7.625 2.203125 
L 7.625 11.71875 
Q 11.71875 9.328125 16.59375 8.109375 
Q 21.484375 6.890625 26.8125 6.890625 
Q 36.078125 6.890625 40.9375 10.546875 
Q 45.796875 14.203125 45.796875 21.1875 
Q 45.796875 27.640625 41.28125 31.265625 
Q 36.765625 34.90625 28.71875 34.90625 
L 20.21875 34.90625 
L 20.21875 43.015625 
L 29.109375 43.015625 
Q 36.375 43.015625 40.234375 45.921875 
Q 44.09375 48.828125 44.09375 54.296875 
Q 44.09375 59.90625 40.109375 62.90625 
Q 36.140625 65.921875 28.71875 65.921875 
Q 24.65625 65.921875 20.015625 65.03125 
Q 15.375 64.15625 9.8125 62.3125 
L 9.8125 71.09375 
Q 15.4375 72.65625 20.34375 73.4375 
Q 25.25 74.21875 29.59375 74.21875 
Q 40.828125 74.21875 47.359375 69.109375 
Q 53.90625 64.015625 53.90625 55.328125 
Q 53.90625 49.265625 50.4375 45.09375 
Q 46.96875 40.921875 40.578125 39.3125 
z
" id="DejaVuSans-51"/>
       </defs>
       <use transform="translate(0 0.765625)" xlink:href="#DejaVuSans-49"/>
       <use transform="translate(63.623047 0.765625)" xlink:href="#DejaVuSans-48"/>
       <use transform="translate(128.203125 39.046875)scale(0.7)" xlink:href="#DejaVuSans-8722"/>
       <use transform="translate(186.855469 39.046875)scale(0.7)" xlink:href="#DejaVuSans-51"/>
      </g>
     </g>
    </g>
    <g id="ytick_4">
     <g id="line2d_30">
      <g>
       <use style="stroke:#000000;stroke-width:0.8;" x="135" xlink:href="#m4691912ac4" y="128.948332"/>
      </g>
     </g>
     <g id="text_6">
      <!-- $\mathdefault{10^{-2}}$ -->
      <g transform="translate(104.5 132.747551)scale(0.1 -0.1)">
       <use transform="translate(0 0.765625)" xlink:href="#DejaVuSans-49"/>
       <use transform="translate(63.623047 0.765625)" xlink:href="#DejaVuSans-48"/>
       <use transform="translate(128.203125 39.046875)scale(0.7)" xlink:href="#DejaVuSans-8722"/>
       <use transform="translate(186.855469 39.046875)scale(0.7)" xlink:href="#DejaVuSans-50"/>
      </g>
     </g>
    </g>
    <g id="ytick_5">
     <g id="line2d_31">
      <g>
       <use style="stroke:#000000;stroke-width:0.8;" x="135" xlink:href="#m4691912ac4" y="66.93111"/>
      </g>
     </g>
     <g id="text_7">
      <!-- $\mathdefault{10^{-1}}$ -->
      <g transform="translate(104.5 70.730329)scale(0.1 -0.1)">
       <use transform="translate(0 0.684375)" xlink:href="#DejaVuSans-49"/>
       <use transform="translate(63.623047 0.684375)" xlink:href="#DejaVuSans-48"/>
       <use transform="translate(128.203125 38.965625)scale(0.7)" xlink:href="#DejaVuSans-8722"/>
       <use transform="translate(186.855469 38.965625)scale(0.7)" xlink:href="#DejaVuSans-49"/>
      </g>
     </g>
    </g>
    <g id="ytick_6">
     <g id="line2d_32">
      <defs>
       <path d="M 0 0 
L -2 0 
" id="m4f95f68364" style="stroke:#000000;stroke-width:0.6;"/>
      </defs>
      <g>
       <use style="stroke:#000000;stroke-width:0.6;" x="135" xlink:href="#m4f95f68364" y="296.330956"/>
      </g>
     </g>
    </g>
    <g id="ytick_7">
     <g id="line2d_33">
      <g>
       <use style="stroke:#000000;stroke-width:0.6;" x="135" xlink:href="#m4f95f68364" y="285.410265"/>
      </g>
     </g>
    </g>
    <g id="ytick_8">
     <g id="line2d_34">
      <g>
       <use style="stroke:#000000;stroke-width:0.6;" x="135" xlink:href="#m4f95f68364" y="277.661912"/>
      </g>
     </g>
    </g>
    <g id="ytick_9">
     <g id="line2d_35">
      <g>
       <use style="stroke:#000000;stroke-width:0.6;" x="135" xlink:href="#m4f95f68364" y="271.651822"/>
      </g>
     </g>
    </g>
    <g id="ytick_10">
     <g id="line2d_36">
      <g>
       <use style="stroke:#000000;stroke-width:0.6;" x="135" xlink:href="#m4f95f68364" y="266.741221"/>
      </g>
     </g>
    </g>
    <g id="ytick_11">
     <g id="line2d_37">
      <g>
       <use style="stroke:#000000;stroke-width:0.6;" x="135" xlink:href="#m4f95f68364" y="262.589367"/>
      </g>
     </g>
    </g>
    <g id="ytick_12">
     <g id="line2d_38">
      <g>
       <use style="stroke:#000000;stroke-width:0.6;" x="135" xlink:href="#m4f95f68364" y="258.992867"/>
      </g>
     </g>
    </g>
    <g id="ytick_13">
     <g id="line2d_39">
      <g>
       <use style="stroke:#000000;stroke-width:0.6;" x="135" xlink:href="#m4f95f68364" y="255.82053"/>
      </g>
     </g>
    </g>
    <g id="ytick_14">
     <g id="line2d_40">
      <g>
       <use style="stroke:#000000;stroke-width:0.6;" x="135" xlink:href="#m4f95f68364" y="234.313733"/>
      </g>
     </g>
    </g>
    <g id="ytick_15">
     <g id="line2d_41">
      <g>
       <use style="stroke:#000000;stroke-width:0.6;" x="135" xlink:href="#m4f95f68364" y="223.393042"/>
      </g>
     </g>
    </g>
    <g id="ytick_16">
     <g id="line2d_42">
      <g>
       <use style="stroke:#000000;stroke-width:0.6;" x="135" xlink:href="#m4f95f68364" y="215.644689"/>
      </g>
     </g>
    </g>
    <g id="ytick_17">
     <g id="line2d_43">
      <g>
       <use style="stroke:#000000;stroke-width:0.6;" x="135" xlink:href="#m4f95f68364" y="209.634599"/>
      </g>
     </g>
    </g>
    <g id="ytick_18">
     <g id="line2d_44">
      <g>
       <use style="stroke:#000000;stroke-width:0.6;" x="135" xlink:href="#m4f95f68364" y="204.723998"/>
      </g>
     </g>
    </g>
    <g id="ytick_19">
     <g id="line2d_45">
      <g>
       <use style="stroke:#000000;stroke-width:0.6;" x="135" xlink:href="#m4f95f68364" y="200.572144"/>
      </g>
     </g>
    </g>
    <g id="ytick_20">
     <g id="line2d_46">
      <g>
       <use style="stroke:#000000;stroke-width:0.6;" x="135" xlink:href="#m4f95f68364" y="196.975645"/>
      </g>
     </g>
    </g>
    <g id="ytick_21">
     <g id="line2d_47">
      <g>
       <use style="stroke:#000000;stroke-width:0.6;" x="135" xlink:href="#m4f95f68364" y="193.803307"/>
      </g>
     </g>
    </g>
    <g id="ytick_22">
     <g id="line2d_48">
      <g>
       <use style="stroke:#000000;stroke-width:0.6;" x="135" xlink:href="#m4f95f68364" y="172.296511"/>
      </g>
     </g>
    </g>
    <g id="ytick_23">
     <g id="line2d_49">
      <g>
       <use style="stroke:#000000;stroke-width:0.6;" x="135" xlink:href="#m4f95f68364" y="161.37582"/>
      </g>
     </g>
    </g>
    <g id="ytick_24">
     <g id="line2d_50">
      <g>
       <use style="stroke:#000000;stroke-width:0.6;" x="135" xlink:href="#m4f95f68364" y="153.627467"/>
      </g>
     </g>
    </g>
    <g id="ytick_25">
     <g id="line2d_51">
      <g>
       <use style="stroke:#000000;stroke-width:0.6;" x="135" xlink:href="#m4f95f68364" y="147.617377"/>
      </g>
     </g>
    </g>
    <g id="ytick_26">
     <g id="line2d_52">
      <g>
       <use style="stroke:#000000;stroke-width:0.6;" x="135" xlink:href="#m4f95f68364" y="142.706776"/>
      </g>
     </g>
    </g>
    <g id="ytick_27">
     <g id="line2d_53">
      <g>
       <use style="stroke:#000000;stroke-width:0.6;" x="135" xlink:href="#m4f95f68364" y="138.554922"/>
      </g>
     </g>
    </g>
    <g id="ytick_28">
     <g id="line2d_54">
      <g>
       <use style="stroke:#000000;stroke-width:0.6;" x="135" xlink:href="#m4f95f68364" y="134.958422"/>
      </g>
     </g>
    </g>
    <g id="ytick_29">
     <g id="line2d_55">
      <g>
       <use style="stroke:#000000;stroke-width:0.6;" x="135" xlink:href="#m4f95f68364" y="131.786085"/>
      </g>
     </g>
    </g>
    <g id="ytick_30">
     <g id="line2d_56">
      <g>
       <use style="stroke:#000000;stroke-width:0.6;" x="135" xlink:href="#m4f95f68364" y="110.279288"/>
      </g>
     </g>
    </g>
    <g id="ytick_31">
     <g id="line2d_57">
      <g>
       <use style="stroke:#000000;stroke-width:0.6;" x="135" xlink:href="#m4f95f68364" y="99.358597"/>
      </g>
     </g>
    </g>
    <g id="ytick_32">
     <g id="line2d_58">
      <g>
       <use style="stroke:#000000;stroke-width:0.6;" x="135" xlink:href="#m4f95f68364" y="91.610244"/>
      </g>
     </g>
    </g>
    <g id="ytick_33">
     <g id="line2d_59">
      <g>
       <use style="stroke:#000000;stroke-width:0.6;" x="135" xlink:href="#m4f95f68364" y="85.600154"/>
      </g>
     </g>
    </g>
    <g id="ytick_34">
     <g id="line2d_60">
      <g>
       <use style="stroke:#000000;stroke-width:0.6;" x="135" xlink:href="#m4f95f68364" y="80.689553"/>
      </g>
     </g>
    </g>
    <g id="ytick_35">
     <g id="line2d_61">
      <g>
       <use style="stroke:#000000;stroke-width:0.6;" x="135" xlink:href="#m4f95f68364" y="76.537699"/>
      </g>
     </g>
    </g>
    <g id="ytick_36">
     <g id="line2d_62">
      <g>
       <use style="stroke:#000000;stroke-width:0.6;" x="135" xlink:href="#m4f95f68364" y="72.9412"/>
      </g>
     </g>
    </g>
    <g id="ytick_37">
     <g id="line2d_63">
      <g>
       <use style="stroke:#000000;stroke-width:0.6;" x="135" xlink:href="#m4f95f68364" y="69.768862"/>
      </g>
     </g>
    </g>
    <g id="ytick_38">
     <g id="line2d_64">
      <g>
       <use style="stroke:#000000;stroke-width:0.6;" x="135" xlink:href="#m4f95f68364" y="48.262066"/>
      </g>
     </g>
    </g>
   </g>
   <g id="line2d_65">
    <path clip-path="url(#p0a8e0d7a6c)" d="M 152.293388 63.076869 
L 180.982398 88.51475 
L 199.879365 69.845706 
L 213.993696 97.577205 
L 225.263771 111.335649 
L 238.807924 88.51475 
L 252.922255 116.24625 
L 266.688833 111.335649 
L 279.707284 133.17703 
L 293.389597 128.266429 
L 306.825225 165.604518 
L 319.595902 124.252344 
L 333.072021 138.087631 
L 346.348097 146.330196 
L 359.934461 165.604518 
L 373.112737 168.975629 
M 399.554964 202.029511 
L 412.770684 200.104854 
L 425.951327 244.045006 
L 439.167046 206.940112 
L 452.329778 256.483492 
L 465.520932 244.336184 
L 478.714943 239.598791 
L 491.970386 238.542431 
" style="fill:none;stroke:#1f77b4;stroke-linecap:square;stroke-width:3;"/>
   </g>
   <g id="line2d_66">
    <path clip-path="url(#p0a8e0d7a6c)" d="M 191.221948 58.914533 
L 207.37876 70.038396 
L 219.910957 78.666735 
L 230.150508 85.716601 
L 238.807924 91.677178 
L 246.30732 96.840464 
L 252.922255 101.394806 
L 258.839517 105.468803 
L 264.192331 109.154182 
L 269.079067 112.518669 
L 273.574429 115.613698 
L 277.736484 118.479246 
L 281.611264 121.147008 
L 285.235879 123.642533 
L 288.640682 125.986718 
L 291.850815 128.196874 
L 297.768076 132.270872 
L 300.508232 134.157451 
L 305.617392 137.675076 
L 312.502989 142.415766 
L 314.622563 143.875079 
L 318.635844 146.638198 
L 320.539824 147.949076 
L 322.381367 149.216967 
L 324.164439 150.444601 
L 327.569241 152.788786 
L 329.197241 153.909653 
L 330.779375 154.998943 
L 332.318157 156.058385 
L 333.8159 157.089571 
L 335.274736 158.093971 
L 342.04945 162.758319 
L 343.311572 163.627281 
L 348.094208 166.920096 
L 349.228833 167.701279 
L 357.564403 173.440266 
L 358.524462 174.10126 
L 360.396703 175.390287 
L 362.208539 176.637724 
L 372.000581 183.379484 
L 372.74446 183.89164 
L 374.918746 185.388622 
L 375.625196 185.875008 
L 377.011983 186.829803 
L 377.692744 187.298502 
L 396.006709 199.907552 
L 400.238487 202.821104 
L 405.011879 206.107555 
L 412.770684 211.449443 
L 415.597043 213.395374 
L 417.958558 215.021262 
L 418.287955 215.24805 
L 425.085057 219.927812 
L 435.178922 226.877374 
L 436.381581 227.705397 
L 440.509629 230.547532 
L 443.522875 232.622133 
L 443.940438 232.909623 
L 454.869102 240.433939 
L 462.539463 245.714935 
L 465.873931 248.010695 
L 473.863828 253.511688 
L 481.81921 258.988919 
L 483.386624 260.068074 
L 485.311211 261.393139 
L 489.06637 263.978543 
L 495.898208 268.68222 
L 498.161157 270.240247 
" style="fill:none;stroke:#0000ff;stroke-dasharray:5.55,2.4;stroke-dashoffset:0;stroke-width:1.5;"/>
   </g>
   <g id="line2d_67">
    <path clip-path="url(#p0a8e0d7a6c)" d="M 191.221948 75.336354 
L 207.37876 82.149634 
L 219.910957 87.553004 
L 230.150508 92.058703 
L 238.807924 95.939075 
L 246.30732 99.357151 
L 252.922255 102.418639 
L 258.839517 105.196161 
L 264.192331 107.741851 
L 269.079067 110.094454 
L 273.574429 112.283584 
L 277.736484 114.332404 
L 281.611264 116.25939 
L 285.235879 118.079523 
L 288.640682 119.805125 
L 291.850815 121.446462 
L 297.768076 124.509625 
L 300.508232 125.945106 
L 305.617392 128.651272 
L 312.502989 132.361453 
L 314.622563 133.518595 
L 318.635844 135.729543 
L 320.539824 136.787769 
L 322.381367 137.817089 
L 324.164439 138.819226 
L 327.569241 140.748087 
L 329.197241 141.677557 
L 330.779375 142.585363 
L 332.318157 143.472615 
L 333.8159 144.340338 
L 335.274736 145.18948 
L 342.04945 149.185151 
L 343.311572 149.939257 
L 348.094208 152.825326 
L 349.228833 153.516734 
L 357.564403 158.677753 
L 358.524462 159.281614 
L 360.396703 160.464968 
L 362.208539 161.61745 
L 372.000581 167.97416 
L 372.74446 168.466147 
L 374.918746 169.911736 
L 375.625196 170.383869 
L 377.011983 171.314202 
L 377.692744 171.772611 
L 396.006709 184.548812 
L 400.238487 187.629156 
L 405.011879 191.16504 
L 412.770684 197.056232 
L 415.597043 199.248045 
L 417.958558 201.098665 
L 418.287955 201.358213 
L 425.085057 206.792789 
L 435.178922 215.151478 
L 436.381581 216.17129 
L 440.509629 219.711762 
L 443.522875 222.335983 
L 443.940438 222.702336 
L 454.869102 232.531833 
L 462.539463 239.720055 
L 465.873931 242.923008 
L 473.863828 250.798507 
L 481.81921 258.933624 
L 483.386624 260.572354 
L 485.311211 262.601083 
L 489.06637 266.612891 
L 495.898208 274.097988 
L 498.161157 276.631859 
" style="fill:none;stroke:#000000;stroke-dasharray:5.55,2.4;stroke-dashoffset:0;stroke-width:1.5;"/>
   </g>
   <g id="line2d_68">
    <path clip-path="url(#p0a8e0d7a6c)" d="M 191.221948 121.581984 
L 207.37876 121.938391 
L 219.910957 122.294798 
L 230.150508 122.651205 
L 238.807924 123.007611 
L 246.30732 123.364018 
L 252.922255 123.720425 
L 258.839517 124.076832 
L 264.192331 124.433239 
L 269.079067 124.789645 
L 273.574429 125.146052 
L 277.736484 125.502459 
L 281.611264 125.858866 
L 285.235879 126.215273 
L 288.640682 126.571679 
L 291.850815 126.928086 
L 297.768076 127.6409 
L 300.508232 127.997307 
L 305.617392 128.71012 
L 312.502989 129.779341 
L 314.622563 130.135747 
L 318.635844 130.848561 
L 320.539824 131.204968 
L 322.381367 131.561375 
L 324.164439 131.917781 
L 327.569241 132.630595 
L 329.197241 132.987002 
L 330.779375 133.343409 
L 332.318157 133.699815 
L 333.8159 134.056222 
L 335.274736 134.412629 
L 342.04945 136.194663 
L 343.311572 136.55107 
L 348.094208 137.976697 
L 349.228833 138.333104 
L 357.564403 141.184358 
L 358.524462 141.540765 
L 360.396703 142.253579 
L 362.208539 142.966392 
L 372.000581 147.243274 
L 372.74446 147.59968 
L 374.918746 148.668901 
L 375.625196 149.025308 
L 377.011983 149.738121 
L 377.692744 150.094528 
L 396.006709 161.499546 
L 400.238487 164.707207 
L 405.011879 168.627682 
L 412.770684 175.755817 
L 415.597043 178.607072 
L 417.958558 181.101919 
L 418.287955 181.458326 
L 425.085057 189.299276 
L 435.178922 202.842734 
L 436.381581 204.624768 
L 440.509629 211.04009 
L 443.522875 216.029786 
L 443.940438 216.742599 
L 454.869102 237.414193 
L 462.539463 254.52172 
L 465.873931 262.719076 
L 473.863828 284.459891 
L 481.81921 309.408366 
L 483.386624 314.754468 
L 485.311211 321.526197 
L 489.06637 335.426063 
L 495.351215 361 
" style="fill:none;stroke:#ff0000;stroke-dasharray:5.55,2.4;stroke-dashoffset:0;stroke-width:1.5;"/>
   </g>
   <g id="patch_3">
    <path d="M 135 315 
L 135 43.2 
" style="fill:none;stroke:#000000;stroke-linecap:square;stroke-linejoin:miter;stroke-width:0.8;"/>
   </g>
   <g id="patch_4">
    <path d="M 515.454545 315 
L 515.454545 43.2 
" style="fill:none;stroke:#000000;stroke-linecap:square;stroke-linejoin:miter;stroke-width:0.8;"/>
   </g>
   <g id="patch_5">
    <path d="M 135 315 
L 515.454545 315 
" style="fill:none;stroke:#000000;stroke-linecap:square;stroke-linejoin:miter;stroke-width:0.8;"/>
   </g>
   <g id="patch_6">
    <path d="M 135 43.2 
L 515.454545 43.2 
" style="fill:none;stroke:#000000;stroke-linecap:square;stroke-linejoin:miter;stroke-width:0.8;"/>
   </g>
   <g id="text_8">
    <!-- Degree distribution -->
    <g transform="translate(252.808913 37.2)scale(0.15 -0.15)">
     <defs>
      <path d="M 19.671875 64.796875 
L 19.671875 8.109375 
L 31.59375 8.109375 
Q 46.6875 8.109375 53.6875 14.9375 
Q 60.6875 21.78125 60.6875 36.53125 
Q 60.6875 51.171875 53.6875 57.984375 
Q 46.6875 64.796875 31.59375 64.796875 
z
M 9.8125 72.90625 
L 30.078125 72.90625 
Q 51.265625 72.90625 61.171875 64.09375 
Q 71.09375 55.28125 71.09375 36.53125 
Q 71.09375 17.671875 61.125 8.828125 
Q 51.171875 0 30.078125 0 
L 9.8125 0 
z
" id="DejaVuSans-68"/>
      <path d="M 56.203125 29.59375 
L 56.203125 25.203125 
L 14.890625 25.203125 
Q 15.484375 15.921875 20.484375 11.0625 
Q 25.484375 6.203125 34.421875 6.203125 
Q 39.59375 6.203125 44.453125 7.46875 
Q 49.3125 8.734375 54.109375 11.28125 
L 54.109375 2.78125 
Q 49.265625 0.734375 44.1875 -0.34375 
Q 39.109375 -1.421875 33.890625 -1.421875 
Q 20.796875 -1.421875 13.15625 6.1875 
Q 5.515625 13.8125 5.515625 26.8125 
Q 5.515625 40.234375 12.765625 48.109375 
Q 20.015625 56 32.328125 56 
Q 43.359375 56 49.78125 48.890625 
Q 56.203125 41.796875 56.203125 29.59375 
z
M 47.21875 32.234375 
Q 47.125 39.59375 43.09375 43.984375 
Q 39.0625 48.390625 32.421875 48.390625 
Q 24.90625 48.390625 20.390625 44.140625 
Q 15.875 39.890625 15.1875 32.171875 
z
" id="DejaVuSans-101"/>
      <path d="M 45.40625 27.984375 
Q 45.40625 37.75 41.375 43.109375 
Q 37.359375 48.484375 30.078125 48.484375 
Q 22.859375 48.484375 18.828125 43.109375 
Q 14.796875 37.75 14.796875 27.984375 
Q 14.796875 18.265625 18.828125 12.890625 
Q 22.859375 7.515625 30.078125 7.515625 
Q 37.359375 7.515625 41.375 12.890625 
Q 45.40625 18.265625 45.40625 27.984375 
z
M 54.390625 6.78125 
Q 54.390625 -7.171875 48.1875 -13.984375 
Q 42 -20.796875 29.203125 -20.796875 
Q 24.46875 -20.796875 20.265625 -20.09375 
Q 16.0625 -19.390625 12.109375 -17.921875 
L 12.109375 -9.1875 
Q 16.0625 -11.328125 19.921875 -12.34375 
Q 23.78125 -13.375 27.78125 -13.375 
Q 36.625 -13.375 41.015625 -8.765625 
Q 45.40625 -4.15625 45.40625 5.171875 
L 45.40625 9.625 
Q 42.625 4.78125 38.28125 2.390625 
Q 33.9375 0 27.875 0 
Q 17.828125 0 11.671875 7.65625 
Q 5.515625 15.328125 5.515625 27.984375 
Q 5.515625 40.671875 11.671875 48.328125 
Q 17.828125 56 27.875 56 
Q 33.9375 56 38.28125 53.609375 
Q 42.625 51.21875 45.40625 46.390625 
L 45.40625 54.6875 
L 54.390625 54.6875 
z
" id="DejaVuSans-103"/>
      <path d="M 41.109375 46.296875 
Q 39.59375 47.171875 37.8125 47.578125 
Q 36.03125 48 33.890625 48 
Q 26.265625 48 22.1875 43.046875 
Q 18.109375 38.09375 18.109375 28.8125 
L 18.109375 0 
L 9.078125 0 
L 9.078125 54.6875 
L 18.109375 54.6875 
L 18.109375 46.1875 
Q 20.953125 51.171875 25.484375 53.578125 
Q 30.03125 56 36.53125 56 
Q 37.453125 56 38.578125 55.875 
Q 39.703125 55.765625 41.0625 55.515625 
z
" id="DejaVuSans-114"/>
      <path id="DejaVuSans-32"/>
      <path d="M 45.40625 46.390625 
L 45.40625 75.984375 
L 54.390625 75.984375 
L 54.390625 0 
L 45.40625 0 
L 45.40625 8.203125 
Q 42.578125 3.328125 38.25 0.953125 
Q 33.9375 -1.421875 27.875 -1.421875 
Q 17.96875 -1.421875 11.734375 6.484375 
Q 5.515625 14.40625 5.515625 27.296875 
Q 5.515625 40.1875 11.734375 48.09375 
Q 17.96875 56 27.875 56 
Q 33.9375 56 38.25 53.625 
Q 42.578125 51.265625 45.40625 46.390625 
z
M 14.796875 27.296875 
Q 14.796875 17.390625 18.875 11.75 
Q 22.953125 6.109375 30.078125 6.109375 
Q 37.203125 6.109375 41.296875 11.75 
Q 45.40625 17.390625 45.40625 27.296875 
Q 45.40625 37.203125 41.296875 42.84375 
Q 37.203125 48.484375 30.078125 48.484375 
Q 22.953125 48.484375 18.875 42.84375 
Q 14.796875 37.203125 14.796875 27.296875 
z
" id="DejaVuSans-100"/>
      <path d="M 9.421875 54.6875 
L 18.40625 54.6875 
L 18.40625 0 
L 9.421875 0 
z
M 9.421875 75.984375 
L 18.40625 75.984375 
L 18.40625 64.59375 
L 9.421875 64.59375 
z
" id="DejaVuSans-105"/>
      <path d="M 44.28125 53.078125 
L 44.28125 44.578125 
Q 40.484375 46.53125 36.375 47.5 
Q 32.28125 48.484375 27.875 48.484375 
Q 21.1875 48.484375 17.84375 46.4375 
Q 14.5 44.390625 14.5 40.28125 
Q 14.5 37.15625 16.890625 35.375 
Q 19.28125 33.59375 26.515625 31.984375 
L 29.59375 31.296875 
Q 39.15625 29.25 43.1875 25.515625 
Q 47.21875 21.78125 47.21875 15.09375 
Q 47.21875 7.46875 41.1875 3.015625 
Q 35.15625 -1.421875 24.609375 -1.421875 
Q 20.21875 -1.421875 15.453125 -0.5625 
Q 10.6875 0.296875 5.421875 2 
L 5.421875 11.28125 
Q 10.40625 8.6875 15.234375 7.390625 
Q 20.0625 6.109375 24.8125 6.109375 
Q 31.15625 6.109375 34.5625 8.28125 
Q 37.984375 10.453125 37.984375 14.40625 
Q 37.984375 18.0625 35.515625 20.015625 
Q 33.0625 21.96875 24.703125 23.78125 
L 21.578125 24.515625 
Q 13.234375 26.265625 9.515625 29.90625 
Q 5.8125 33.546875 5.8125 39.890625 
Q 5.8125 47.609375 11.28125 51.796875 
Q 16.75 56 26.8125 56 
Q 31.78125 56 36.171875 55.265625 
Q 40.578125 54.546875 44.28125 53.078125 
z
" id="DejaVuSans-115"/>
      <path d="M 18.3125 70.21875 
L 18.3125 54.6875 
L 36.8125 54.6875 
L 36.8125 47.703125 
L 18.3125 47.703125 
L 18.3125 18.015625 
Q 18.3125 11.328125 20.140625 9.421875 
Q 21.96875 7.515625 27.59375 7.515625 
L 36.8125 7.515625 
L 36.8125 0 
L 27.59375 0 
Q 17.1875 0 13.234375 3.875 
Q 9.28125 7.765625 9.28125 18.015625 
L 9.28125 47.703125 
L 2.6875 47.703125 
L 2.6875 54.6875 
L 9.28125 54.6875 
L 9.28125 70.21875 
z
" id="DejaVuSans-116"/>
      <path d="M 48.6875 27.296875 
Q 48.6875 37.203125 44.609375 42.84375 
Q 40.53125 48.484375 33.40625 48.484375 
Q 26.265625 48.484375 22.1875 42.84375 
Q 18.109375 37.203125 18.109375 27.296875 
Q 18.109375 17.390625 22.1875 11.75 
Q 26.265625 6.109375 33.40625 6.109375 
Q 40.53125 6.109375 44.609375 11.75 
Q 48.6875 17.390625 48.6875 27.296875 
z
M 18.109375 46.390625 
Q 20.953125 51.265625 25.265625 53.625 
Q 29.59375 56 35.59375 56 
Q 45.5625 56 51.78125 48.09375 
Q 58.015625 40.1875 58.015625 27.296875 
Q 58.015625 14.40625 51.78125 6.484375 
Q 45.5625 -1.421875 35.59375 -1.421875 
Q 29.59375 -1.421875 25.265625 0.953125 
Q 20.953125 3.328125 18.109375 8.203125 
L 18.109375 0 
L 9.078125 0 
L 9.078125 75.984375 
L 18.109375 75.984375 
z
" id="DejaVuSans-98"/>
      <path d="M 8.5 21.578125 
L 8.5 54.6875 
L 17.484375 54.6875 
L 17.484375 21.921875 
Q 17.484375 14.15625 20.5 10.265625 
Q 23.53125 6.390625 29.59375 6.390625 
Q 36.859375 6.390625 41.078125 11.03125 
Q 45.3125 15.671875 45.3125 23.6875 
L 45.3125 54.6875 
L 54.296875 54.6875 
L 54.296875 0 
L 45.3125 0 
L 45.3125 8.40625 
Q 42.046875 3.421875 37.71875 1 
Q 33.40625 -1.421875 27.6875 -1.421875 
Q 18.265625 -1.421875 13.375 4.4375 
Q 8.5 10.296875 8.5 21.578125 
z
M 31.109375 56 
z
" id="DejaVuSans-117"/>
      <path d="M 30.609375 48.390625 
Q 23.390625 48.390625 19.1875 42.75 
Q 14.984375 37.109375 14.984375 27.296875 
Q 14.984375 17.484375 19.15625 11.84375 
Q 23.34375 6.203125 30.609375 6.203125 
Q 37.796875 6.203125 41.984375 11.859375 
Q 46.1875 17.53125 46.1875 27.296875 
Q 46.1875 37.015625 41.984375 42.703125 
Q 37.796875 48.390625 30.609375 48.390625 
z
M 30.609375 56 
Q 42.328125 56 49.015625 48.375 
Q 55.71875 40.765625 55.71875 27.296875 
Q 55.71875 13.875 49.015625 6.21875 
Q 42.328125 -1.421875 30.609375 -1.421875 
Q 18.84375 -1.421875 12.171875 6.21875 
Q 5.515625 13.875 5.515625 27.296875 
Q 5.515625 40.765625 12.171875 48.375 
Q 18.84375 56 30.609375 56 
z
" id="DejaVuSans-111"/>
      <path d="M 54.890625 33.015625 
L 54.890625 0 
L 45.90625 0 
L 45.90625 32.71875 
Q 45.90625 40.484375 42.875 44.328125 
Q 39.84375 48.1875 33.796875 48.1875 
Q 26.515625 48.1875 22.3125 43.546875 
Q 18.109375 38.921875 18.109375 30.90625 
L 18.109375 0 
L 9.078125 0 
L 9.078125 54.6875 
L 18.109375 54.6875 
L 18.109375 46.1875 
Q 21.34375 51.125 25.703125 53.5625 
Q 30.078125 56 35.796875 56 
Q 45.21875 56 50.046875 50.171875 
Q 54.890625 44.34375 54.890625 33.015625 
z
" id="DejaVuSans-110"/>
     </defs>
     <use xlink:href="#DejaVuSans-68"/>
     <use x="77.001953" xlink:href="#DejaVuSans-101"/>
     <use x="138.525391" xlink:href="#DejaVuSans-103"/>
     <use x="202.001953" xlink:href="#DejaVuSans-114"/>
     <use x="240.865234" xlink:href="#DejaVuSans-101"/>
     <use x="302.388672" xlink:href="#DejaVuSans-101"/>
     <use x="363.912109" xlink:href="#DejaVuSans-32"/>
     <use x="395.699219" xlink:href="#DejaVuSans-100"/>
     <use x="459.175781" xlink:href="#DejaVuSans-105"/>
     <use x="486.958984" xlink:href="#DejaVuSans-115"/>
     <use x="539.058594" xlink:href="#DejaVuSans-116"/>
     <use x="578.267578" xlink:href="#DejaVuSans-114"/>
     <use x="619.380859" xlink:href="#DejaVuSans-105"/>
     <use x="647.164062" xlink:href="#DejaVuSans-98"/>
     <use x="710.640625" xlink:href="#DejaVuSans-117"/>
     <use x="774.019531" xlink:href="#DejaVuSans-116"/>
     <use x="813.228516" xlink:href="#DejaVuSans-105"/>
     <use x="841.011719" xlink:href="#DejaVuSans-111"/>
     <use x="902.193359" xlink:href="#DejaVuSans-110"/>
    </g>
   </g>
   <g id="legend_1">
    <g id="patch_7">
     <path d="M 367.052983 109.9125 
L 508.454545 109.9125 
Q 510.454545 109.9125 510.454545 107.9125 
L 510.454545 50.2 
Q 510.454545 48.2 508.454545 48.2 
L 367.052983 48.2 
Q 365.052983 48.2 365.052983 50.2 
L 365.052983 107.9125 
Q 365.052983 109.9125 367.052983 109.9125 
z
" style="fill:#ffffff;opacity:0.8;stroke:#cccccc;stroke-linejoin:miter;"/>
    </g>
    <g id="line2d_69">
     <path d="M 369.052983 56.298437 
L 389.052983 56.298437 
" style="fill:none;stroke:#1f77b4;stroke-linecap:square;stroke-width:3;"/>
    </g>
    <g id="line2d_70"/>
    <g id="text_9">
     <!-- data -->
     <g transform="translate(397.052983 59.798437)scale(0.1 -0.1)">
      <defs>
       <path d="M 34.28125 27.484375 
Q 23.390625 27.484375 19.1875 25 
Q 14.984375 22.515625 14.984375 16.5 
Q 14.984375 11.71875 18.140625 8.90625 
Q 21.296875 6.109375 26.703125 6.109375 
Q 34.1875 6.109375 38.703125 11.40625 
Q 43.21875 16.703125 43.21875 25.484375 
L 43.21875 27.484375 
z
M 52.203125 31.203125 
L 52.203125 0 
L 43.21875 0 
L 43.21875 8.296875 
Q 40.140625 3.328125 35.546875 0.953125 
Q 30.953125 -1.421875 24.3125 -1.421875 
Q 15.921875 -1.421875 10.953125 3.296875 
Q 6 8.015625 6 15.921875 
Q 6 25.140625 12.171875 29.828125 
Q 18.359375 34.515625 30.609375 34.515625 
L 43.21875 34.515625 
L 43.21875 35.40625 
Q 43.21875 41.609375 39.140625 45 
Q 35.0625 48.390625 27.6875 48.390625 
Q 23 48.390625 18.546875 47.265625 
Q 14.109375 46.140625 10.015625 43.890625 
L 10.015625 52.203125 
Q 14.9375 54.109375 19.578125 55.046875 
Q 24.21875 56 28.609375 56 
Q 40.484375 56 46.34375 49.84375 
Q 52.203125 43.703125 52.203125 31.203125 
z
" id="DejaVuSans-97"/>
      </defs>
      <use xlink:href="#DejaVuSans-100"/>
      <use x="63.476562" xlink:href="#DejaVuSans-97"/>
      <use x="124.755859" xlink:href="#DejaVuSans-116"/>
      <use x="163.964844" xlink:href="#DejaVuSans-97"/>
     </g>
    </g>
    <g id="line2d_71">
     <path d="M 369.052983 70.976562 
L 389.052983 70.976562 
" style="fill:none;stroke:#0000ff;stroke-dasharray:5.55,2.4;stroke-dashoffset:0;stroke-width:1.5;"/>
    </g>
    <g id="line2d_72"/>
    <g id="text_10">
     <!-- power law -->
     <g transform="translate(397.052983 74.476562)scale(0.1 -0.1)">
      <defs>
       <path d="M 18.109375 8.203125 
L 18.109375 -20.796875 
L 9.078125 -20.796875 
L 9.078125 54.6875 
L 18.109375 54.6875 
L 18.109375 46.390625 
Q 20.953125 51.265625 25.265625 53.625 
Q 29.59375 56 35.59375 56 
Q 45.5625 56 51.78125 48.09375 
Q 58.015625 40.1875 58.015625 27.296875 
Q 58.015625 14.40625 51.78125 6.484375 
Q 45.5625 -1.421875 35.59375 -1.421875 
Q 29.59375 -1.421875 25.265625 0.953125 
Q 20.953125 3.328125 18.109375 8.203125 
z
M 48.6875 27.296875 
Q 48.6875 37.203125 44.609375 42.84375 
Q 40.53125 48.484375 33.40625 48.484375 
Q 26.265625 48.484375 22.1875 42.84375 
Q 18.109375 37.203125 18.109375 27.296875 
Q 18.109375 17.390625 22.1875 11.75 
Q 26.265625 6.109375 33.40625 6.109375 
Q 40.53125 6.109375 44.609375 11.75 
Q 48.6875 17.390625 48.6875 27.296875 
z
" id="DejaVuSans-112"/>
       <path d="M 4.203125 54.6875 
L 13.1875 54.6875 
L 24.421875 12.015625 
L 35.59375 54.6875 
L 46.1875 54.6875 
L 57.421875 12.015625 
L 68.609375 54.6875 
L 77.59375 54.6875 
L 63.28125 0 
L 52.6875 0 
L 40.921875 44.828125 
L 29.109375 0 
L 18.5 0 
z
" id="DejaVuSans-119"/>
       <path d="M 9.421875 75.984375 
L 18.40625 75.984375 
L 18.40625 0 
L 9.421875 0 
z
" id="DejaVuSans-108"/>
      </defs>
      <use xlink:href="#DejaVuSans-112"/>
      <use x="63.476562" xlink:href="#DejaVuSans-111"/>
      <use x="124.658203" xlink:href="#DejaVuSans-119"/>
      <use x="206.445312" xlink:href="#DejaVuSans-101"/>
      <use x="267.96875" xlink:href="#DejaVuSans-114"/>
      <use x="309.082031" xlink:href="#DejaVuSans-32"/>
      <use x="340.869141" xlink:href="#DejaVuSans-108"/>
      <use x="368.652344" xlink:href="#DejaVuSans-97"/>
      <use x="429.931641" xlink:href="#DejaVuSans-119"/>
     </g>
    </g>
    <g id="line2d_73">
     <path d="M 369.052983 85.654687 
L 389.052983 85.654687 
" style="fill:none;stroke:#000000;stroke-dasharray:5.55,2.4;stroke-dashoffset:0;stroke-width:1.5;"/>
    </g>
    <g id="line2d_74"/>
    <g id="text_11">
     <!-- stretched exponential -->
     <g transform="translate(397.052983 89.154687)scale(0.1 -0.1)">
      <defs>
       <path d="M 48.78125 52.59375 
L 48.78125 44.1875 
Q 44.96875 46.296875 41.140625 47.34375 
Q 37.3125 48.390625 33.40625 48.390625 
Q 24.65625 48.390625 19.8125 42.84375 
Q 14.984375 37.3125 14.984375 27.296875 
Q 14.984375 17.28125 19.8125 11.734375 
Q 24.65625 6.203125 33.40625 6.203125 
Q 37.3125 6.203125 41.140625 7.25 
Q 44.96875 8.296875 48.78125 10.40625 
L 48.78125 2.09375 
Q 45.015625 0.34375 40.984375 -0.53125 
Q 36.96875 -1.421875 32.421875 -1.421875 
Q 20.0625 -1.421875 12.78125 6.34375 
Q 5.515625 14.109375 5.515625 27.296875 
Q 5.515625 40.671875 12.859375 48.328125 
Q 20.21875 56 33.015625 56 
Q 37.15625 56 41.109375 55.140625 
Q 45.0625 54.296875 48.78125 52.59375 
z
" id="DejaVuSans-99"/>
       <path d="M 54.890625 33.015625 
L 54.890625 0 
L 45.90625 0 
L 45.90625 32.71875 
Q 45.90625 40.484375 42.875 44.328125 
Q 39.84375 48.1875 33.796875 48.1875 
Q 26.515625 48.1875 22.3125 43.546875 
Q 18.109375 38.921875 18.109375 30.90625 
L 18.109375 0 
L 9.078125 0 
L 9.078125 75.984375 
L 18.109375 75.984375 
L 18.109375 46.1875 
Q 21.34375 51.125 25.703125 53.5625 
Q 30.078125 56 35.796875 56 
Q 45.21875 56 50.046875 50.171875 
Q 54.890625 44.34375 54.890625 33.015625 
z
" id="DejaVuSans-104"/>
       <path d="M 54.890625 54.6875 
L 35.109375 28.078125 
L 55.90625 0 
L 45.3125 0 
L 29.390625 21.484375 
L 13.484375 0 
L 2.875 0 
L 24.125 28.609375 
L 4.6875 54.6875 
L 15.28125 54.6875 
L 29.78125 35.203125 
L 44.28125 54.6875 
z
" id="DejaVuSans-120"/>
      </defs>
      <use xlink:href="#DejaVuSans-115"/>
      <use x="52.099609" xlink:href="#DejaVuSans-116"/>
      <use x="91.308594" xlink:href="#DejaVuSans-114"/>
      <use x="130.171875" xlink:href="#DejaVuSans-101"/>
      <use x="191.695312" xlink:href="#DejaVuSans-116"/>
      <use x="230.904297" xlink:href="#DejaVuSans-99"/>
      <use x="285.884766" xlink:href="#DejaVuSans-104"/>
      <use x="349.263672" xlink:href="#DejaVuSans-101"/>
      <use x="410.787109" xlink:href="#DejaVuSans-100"/>
      <use x="474.263672" xlink:href="#DejaVuSans-32"/>
      <use x="506.050781" xlink:href="#DejaVuSans-101"/>
      <use x="565.824219" xlink:href="#DejaVuSans-120"/>
      <use x="625.003906" xlink:href="#DejaVuSans-112"/>
      <use x="688.480469" xlink:href="#DejaVuSans-111"/>
      <use x="749.662109" xlink:href="#DejaVuSans-110"/>
      <use x="813.041016" xlink:href="#DejaVuSans-101"/>
      <use x="874.564453" xlink:href="#DejaVuSans-110"/>
      <use x="937.943359" xlink:href="#DejaVuSans-116"/>
      <use x="977.152344" xlink:href="#DejaVuSans-105"/>
      <use x="1004.935547" xlink:href="#DejaVuSans-97"/>
      <use x="1066.214844" xlink:href="#DejaVuSans-108"/>
     </g>
    </g>
    <g id="line2d_75">
     <path d="M 369.052983 100.332812 
L 389.052983 100.332812 
" style="fill:none;stroke:#ff0000;stroke-dasharray:5.55,2.4;stroke-dashoffset:0;stroke-width:1.5;"/>
    </g>
    <g id="line2d_76"/>
    <g id="text_12">
     <!-- exponential -->
     <g transform="translate(397.052983 103.832812)scale(0.1 -0.1)">
      <use xlink:href="#DejaVuSans-101"/>
      <use x="59.773438" xlink:href="#DejaVuSans-120"/>
      <use x="118.953125" xlink:href="#DejaVuSans-112"/>
      <use x="182.429688" xlink:href="#DejaVuSans-111"/>
      <use x="243.611328" xlink:href="#DejaVuSans-110"/>
      <use x="306.990234" xlink:href="#DejaVuSans-101"/>
      <use x="368.513672" xlink:href="#DejaVuSans-110"/>
      <use x="431.892578" xlink:href="#DejaVuSans-116"/>
      <use x="471.101562" xlink:href="#DejaVuSans-105"/>
      <use x="498.884766" xlink:href="#DejaVuSans-97"/>
      <use x="560.164062" xlink:href="#DejaVuSans-108"/>
     </g>
    </g>
   </g>
  </g>
  <g id="axes_2">
   <g id="patch_8">
    <path d="M 591.545455 315 
L 972 315 
L 972 43.2 
L 591.545455 43.2 
z
" style="fill:#ffffff;"/>
   </g>
   <g id="matplotlib.axis_3">
    <g id="xtick_27">
     <g id="line2d_77">
      <g>
       <use style="stroke:#000000;stroke-width:0.8;" x="594.269011" xlink:href="#mb4a8bd42e3" y="315"/>
      </g>
     </g>
     <g id="text_13">
      <!-- $\mathdefault{10^{0}}$ -->
      <g transform="translate(585.469011 329.598437)scale(0.1 -0.1)">
       <use transform="translate(0 0.765625)" xlink:href="#DejaVuSans-49"/>
       <use transform="translate(63.623047 0.765625)" xlink:href="#DejaVuSans-48"/>
       <use transform="translate(128.203125 39.046875)scale(0.7)" xlink:href="#DejaVuSans-48"/>
      </g>
     </g>
    </g>
    <g id="xtick_28">
     <g id="line2d_78">
      <g>
       <use style="stroke:#000000;stroke-width:0.8;" x="677.009247" xlink:href="#mb4a8bd42e3" y="315"/>
      </g>
     </g>
     <g id="text_14">
      <!-- $\mathdefault{10^{1}}$ -->
      <g transform="translate(668.209247 329.598437)scale(0.1 -0.1)">
       <use transform="translate(0 0.684375)" xlink:href="#DejaVuSans-49"/>
       <use transform="translate(63.623047 0.684375)" xlink:href="#DejaVuSans-48"/>
       <use transform="translate(128.203125 38.965625)scale(0.7)" xlink:href="#DejaVuSans-49"/>
      </g>
     </g>
    </g>
    <g id="xtick_29">
     <g id="line2d_79">
      <g>
       <use style="stroke:#000000;stroke-width:0.8;" x="759.749484" xlink:href="#mb4a8bd42e3" y="315"/>
      </g>
     </g>
     <g id="text_15">
      <!-- $\mathdefault{10^{2}}$ -->
      <g transform="translate(750.949484 329.598437)scale(0.1 -0.1)">
       <use transform="translate(0 0.765625)" xlink:href="#DejaVuSans-49"/>
       <use transform="translate(63.623047 0.765625)" xlink:href="#DejaVuSans-48"/>
       <use transform="translate(128.203125 39.046875)scale(0.7)" xlink:href="#DejaVuSans-50"/>
      </g>
     </g>
    </g>
    <g id="xtick_30">
     <g id="line2d_80">
      <g>
       <use style="stroke:#000000;stroke-width:0.8;" x="842.489721" xlink:href="#mb4a8bd42e3" y="315"/>
      </g>
     </g>
     <g id="text_16">
      <!-- $\mathdefault{10^{3}}$ -->
      <g transform="translate(833.689721 329.598437)scale(0.1 -0.1)">
       <use transform="translate(0 0.765625)" xlink:href="#DejaVuSans-49"/>
       <use transform="translate(63.623047 0.765625)" xlink:href="#DejaVuSans-48"/>
       <use transform="translate(128.203125 39.046875)scale(0.7)" xlink:href="#DejaVuSans-51"/>
      </g>
     </g>
    </g>
    <g id="xtick_31">
     <g id="line2d_81">
      <g>
       <use style="stroke:#000000;stroke-width:0.8;" x="925.229957" xlink:href="#mb4a8bd42e3" y="315"/>
      </g>
     </g>
     <g id="text_17">
      <!-- $\mathdefault{10^{4}}$ -->
      <g transform="translate(916.429957 329.598437)scale(0.1 -0.1)">
       <use transform="translate(0 0.684375)" xlink:href="#DejaVuSans-49"/>
       <use transform="translate(63.623047 0.684375)" xlink:href="#DejaVuSans-48"/>
       <use transform="translate(128.203125 38.965625)scale(0.7)" xlink:href="#DejaVuSans-52"/>
      </g>
     </g>
    </g>
    <g id="xtick_32">
     <g id="line2d_82">
      <g>
       <use style="stroke:#000000;stroke-width:0.6;" x="619.176304" xlink:href="#m22a5f21118" y="315"/>
      </g>
     </g>
    </g>
    <g id="xtick_33">
     <g id="line2d_83">
      <g>
       <use style="stroke:#000000;stroke-width:0.6;" x="633.746136" xlink:href="#m22a5f21118" y="315"/>
      </g>
     </g>
    </g>
    <g id="xtick_34">
     <g id="line2d_84">
      <g>
       <use style="stroke:#000000;stroke-width:0.6;" x="644.083597" xlink:href="#m22a5f21118" y="315"/>
      </g>
     </g>
    </g>
    <g id="xtick_35">
     <g id="line2d_85">
      <g>
       <use style="stroke:#000000;stroke-width:0.6;" x="652.101954" xlink:href="#m22a5f21118" y="315"/>
      </g>
     </g>
    </g>
    <g id="xtick_36">
     <g id="line2d_86">
      <g>
       <use style="stroke:#000000;stroke-width:0.6;" x="658.653429" xlink:href="#m22a5f21118" y="315"/>
      </g>
     </g>
    </g>
    <g id="xtick_37">
     <g id="line2d_87">
      <g>
       <use style="stroke:#000000;stroke-width:0.6;" x="664.192622" xlink:href="#m22a5f21118" y="315"/>
      </g>
     </g>
    </g>
    <g id="xtick_38">
     <g id="line2d_88">
      <g>
       <use style="stroke:#000000;stroke-width:0.6;" x="668.99089" xlink:href="#m22a5f21118" y="315"/>
      </g>
     </g>
    </g>
    <g id="xtick_39">
     <g id="line2d_89">
      <g>
       <use style="stroke:#000000;stroke-width:0.6;" x="673.223262" xlink:href="#m22a5f21118" y="315"/>
      </g>
     </g>
    </g>
    <g id="xtick_40">
     <g id="line2d_90">
      <g>
       <use style="stroke:#000000;stroke-width:0.6;" x="701.91654" xlink:href="#m22a5f21118" y="315"/>
      </g>
     </g>
    </g>
    <g id="xtick_41">
     <g id="line2d_91">
      <g>
       <use style="stroke:#000000;stroke-width:0.6;" x="716.486373" xlink:href="#m22a5f21118" y="315"/>
      </g>
     </g>
    </g>
    <g id="xtick_42">
     <g id="line2d_92">
      <g>
       <use style="stroke:#000000;stroke-width:0.6;" x="726.823833" xlink:href="#m22a5f21118" y="315"/>
      </g>
     </g>
    </g>
    <g id="xtick_43">
     <g id="line2d_93">
      <g>
       <use style="stroke:#000000;stroke-width:0.6;" x="734.842191" xlink:href="#m22a5f21118" y="315"/>
      </g>
     </g>
    </g>
    <g id="xtick_44">
     <g id="line2d_94">
      <g>
       <use style="stroke:#000000;stroke-width:0.6;" x="741.393666" xlink:href="#m22a5f21118" y="315"/>
      </g>
     </g>
    </g>
    <g id="xtick_45">
     <g id="line2d_95">
      <g>
       <use style="stroke:#000000;stroke-width:0.6;" x="746.932859" xlink:href="#m22a5f21118" y="315"/>
      </g>
     </g>
    </g>
    <g id="xtick_46">
     <g id="line2d_96">
      <g>
       <use style="stroke:#000000;stroke-width:0.6;" x="751.731126" xlink:href="#m22a5f21118" y="315"/>
      </g>
     </g>
    </g>
    <g id="xtick_47">
     <g id="line2d_97">
      <g>
       <use style="stroke:#000000;stroke-width:0.6;" x="755.963498" xlink:href="#m22a5f21118" y="315"/>
      </g>
     </g>
    </g>
    <g id="xtick_48">
     <g id="line2d_98">
      <g>
       <use style="stroke:#000000;stroke-width:0.6;" x="784.656777" xlink:href="#m22a5f21118" y="315"/>
      </g>
     </g>
    </g>
    <g id="xtick_49">
     <g id="line2d_99">
      <g>
       <use style="stroke:#000000;stroke-width:0.6;" x="799.226609" xlink:href="#m22a5f21118" y="315"/>
      </g>
     </g>
    </g>
    <g id="xtick_50">
     <g id="line2d_100">
      <g>
       <use style="stroke:#000000;stroke-width:0.6;" x="809.56407" xlink:href="#m22a5f21118" y="315"/>
      </g>
     </g>
    </g>
    <g id="xtick_51">
     <g id="line2d_101">
      <g>
       <use style="stroke:#000000;stroke-width:0.6;" x="817.582427" xlink:href="#m22a5f21118" y="315"/>
      </g>
     </g>
    </g>
    <g id="xtick_52">
     <g id="line2d_102">
      <g>
       <use style="stroke:#000000;stroke-width:0.6;" x="824.133902" xlink:href="#m22a5f21118" y="315"/>
      </g>
     </g>
    </g>
    <g id="xtick_53">
     <g id="line2d_103">
      <g>
       <use style="stroke:#000000;stroke-width:0.6;" x="829.673096" xlink:href="#m22a5f21118" y="315"/>
      </g>
     </g>
    </g>
    <g id="xtick_54">
     <g id="line2d_104">
      <g>
       <use style="stroke:#000000;stroke-width:0.6;" x="834.471363" xlink:href="#m22a5f21118" y="315"/>
      </g>
     </g>
    </g>
    <g id="xtick_55">
     <g id="line2d_105">
      <g>
       <use style="stroke:#000000;stroke-width:0.6;" x="838.703735" xlink:href="#m22a5f21118" y="315"/>
      </g>
     </g>
    </g>
    <g id="xtick_56">
     <g id="line2d_106">
      <g>
       <use style="stroke:#000000;stroke-width:0.6;" x="867.397014" xlink:href="#m22a5f21118" y="315"/>
      </g>
     </g>
    </g>
    <g id="xtick_57">
     <g id="line2d_107">
      <g>
       <use style="stroke:#000000;stroke-width:0.6;" x="881.966846" xlink:href="#m22a5f21118" y="315"/>
      </g>
     </g>
    </g>
    <g id="xtick_58">
     <g id="line2d_108">
      <g>
       <use style="stroke:#000000;stroke-width:0.6;" x="892.304307" xlink:href="#m22a5f21118" y="315"/>
      </g>
     </g>
    </g>
    <g id="xtick_59">
     <g id="line2d_109">
      <g>
       <use style="stroke:#000000;stroke-width:0.6;" x="900.322664" xlink:href="#m22a5f21118" y="315"/>
      </g>
     </g>
    </g>
    <g id="xtick_60">
     <g id="line2d_110">
      <g>
       <use style="stroke:#000000;stroke-width:0.6;" x="906.874139" xlink:href="#m22a5f21118" y="315"/>
      </g>
     </g>
    </g>
    <g id="xtick_61">
     <g id="line2d_111">
      <g>
       <use style="stroke:#000000;stroke-width:0.6;" x="912.413332" xlink:href="#m22a5f21118" y="315"/>
      </g>
     </g>
    </g>
    <g id="xtick_62">
     <g id="line2d_112">
      <g>
       <use style="stroke:#000000;stroke-width:0.6;" x="917.2116" xlink:href="#m22a5f21118" y="315"/>
      </g>
     </g>
    </g>
    <g id="xtick_63">
     <g id="line2d_113">
      <g>
       <use style="stroke:#000000;stroke-width:0.6;" x="921.443972" xlink:href="#m22a5f21118" y="315"/>
      </g>
     </g>
    </g>
    <g id="xtick_64">
     <g id="line2d_114">
      <g>
       <use style="stroke:#000000;stroke-width:0.6;" x="950.13725" xlink:href="#m22a5f21118" y="315"/>
      </g>
     </g>
    </g>
    <g id="xtick_65">
     <g id="line2d_115">
      <g>
       <use style="stroke:#000000;stroke-width:0.6;" x="964.707083" xlink:href="#m22a5f21118" y="315"/>
      </g>
     </g>
    </g>
   </g>
   <g id="matplotlib.axis_4">
    <g id="ytick_39">
     <g id="line2d_116">
      <g>
       <use style="stroke:#000000;stroke-width:0.8;" x="591.545455" xlink:href="#m4691912ac4" y="315"/>
      </g>
     </g>
     <g id="text_18">
      <!-- $\mathdefault{10^{-7}}$ -->
      <g transform="translate(561.045455 318.799219)scale(0.1 -0.1)">
       <defs>
        <path d="M 8.203125 72.90625 
L 55.078125 72.90625 
L 55.078125 68.703125 
L 28.609375 0 
L 18.3125 0 
L 43.21875 64.59375 
L 8.203125 64.59375 
z
" id="DejaVuSans-55"/>
       </defs>
       <use transform="translate(0 0.684375)" xlink:href="#DejaVuSans-49"/>
       <use transform="translate(63.623047 0.684375)" xlink:href="#DejaVuSans-48"/>
       <use transform="translate(128.203125 38.965625)scale(0.7)" xlink:href="#DejaVuSans-8722"/>
       <use transform="translate(186.855469 38.965625)scale(0.7)" xlink:href="#DejaVuSans-55"/>
      </g>
     </g>
    </g>
    <g id="ytick_40">
     <g id="line2d_117">
      <g>
       <use style="stroke:#000000;stroke-width:0.8;" x="591.545455" xlink:href="#m4691912ac4" y="273.582636"/>
      </g>
     </g>
     <g id="text_19">
      <!-- $\mathdefault{10^{-6}}$ -->
      <g transform="translate(561.045455 277.381855)scale(0.1 -0.1)">
       <defs>
        <path d="M 33.015625 40.375 
Q 26.375 40.375 22.484375 35.828125 
Q 18.609375 31.296875 18.609375 23.390625 
Q 18.609375 15.53125 22.484375 10.953125 
Q 26.375 6.390625 33.015625 6.390625 
Q 39.65625 6.390625 43.53125 10.953125 
Q 47.40625 15.53125 47.40625 23.390625 
Q 47.40625 31.296875 43.53125 35.828125 
Q 39.65625 40.375 33.015625 40.375 
z
M 52.59375 71.296875 
L 52.59375 62.3125 
Q 48.875 64.0625 45.09375 64.984375 
Q 41.3125 65.921875 37.59375 65.921875 
Q 27.828125 65.921875 22.671875 59.328125 
Q 17.53125 52.734375 16.796875 39.40625 
Q 19.671875 43.65625 24.015625 45.921875 
Q 28.375 48.1875 33.59375 48.1875 
Q 44.578125 48.1875 50.953125 41.515625 
Q 57.328125 34.859375 57.328125 23.390625 
Q 57.328125 12.15625 50.6875 5.359375 
Q 44.046875 -1.421875 33.015625 -1.421875 
Q 20.359375 -1.421875 13.671875 8.265625 
Q 6.984375 17.96875 6.984375 36.375 
Q 6.984375 53.65625 15.1875 63.9375 
Q 23.390625 74.21875 37.203125 74.21875 
Q 40.921875 74.21875 44.703125 73.484375 
Q 48.484375 72.75 52.59375 71.296875 
z
" id="DejaVuSans-54"/>
       </defs>
       <use transform="translate(0 0.765625)" xlink:href="#DejaVuSans-49"/>
       <use transform="translate(63.623047 0.765625)" xlink:href="#DejaVuSans-48"/>
       <use transform="translate(128.203125 39.046875)scale(0.7)" xlink:href="#DejaVuSans-8722"/>
       <use transform="translate(186.855469 39.046875)scale(0.7)" xlink:href="#DejaVuSans-54"/>
      </g>
     </g>
    </g>
    <g id="ytick_41">
     <g id="line2d_118">
      <g>
       <use style="stroke:#000000;stroke-width:0.8;" x="591.545455" xlink:href="#m4691912ac4" y="232.165272"/>
      </g>
     </g>
     <g id="text_20">
      <!-- $\mathdefault{10^{-5}}$ -->
      <g transform="translate(561.045455 235.964491)scale(0.1 -0.1)">
       <use transform="translate(0 0.684375)" xlink:href="#DejaVuSans-49"/>
       <use transform="translate(63.623047 0.684375)" xlink:href="#DejaVuSans-48"/>
       <use transform="translate(128.203125 38.965625)scale(0.7)" xlink:href="#DejaVuSans-8722"/>
       <use transform="translate(186.855469 38.965625)scale(0.7)" xlink:href="#DejaVuSans-53"/>
      </g>
     </g>
    </g>
    <g id="ytick_42">
     <g id="line2d_119">
      <g>
       <use style="stroke:#000000;stroke-width:0.8;" x="591.545455" xlink:href="#m4691912ac4" y="190.747909"/>
      </g>
     </g>
     <g id="text_21">
      <!-- $\mathdefault{10^{-4}}$ -->
      <g transform="translate(561.045455 194.547127)scale(0.1 -0.1)">
       <use transform="translate(0 0.684375)" xlink:href="#DejaVuSans-49"/>
       <use transform="translate(63.623047 0.684375)" xlink:href="#DejaVuSans-48"/>
       <use transform="translate(128.203125 38.965625)scale(0.7)" xlink:href="#DejaVuSans-8722"/>
       <use transform="translate(186.855469 38.965625)scale(0.7)" xlink:href="#DejaVuSans-52"/>
      </g>
     </g>
    </g>
    <g id="ytick_43">
     <g id="line2d_120">
      <g>
       <use style="stroke:#000000;stroke-width:0.8;" x="591.545455" xlink:href="#m4691912ac4" y="149.330545"/>
      </g>
     </g>
     <g id="text_22">
      <!-- $\mathdefault{10^{-3}}$ -->
      <g transform="translate(561.045455 153.129764)scale(0.1 -0.1)">
       <use transform="translate(0 0.765625)" xlink:href="#DejaVuSans-49"/>
       <use transform="translate(63.623047 0.765625)" xlink:href="#DejaVuSans-48"/>
       <use transform="translate(128.203125 39.046875)scale(0.7)" xlink:href="#DejaVuSans-8722"/>
       <use transform="translate(186.855469 39.046875)scale(0.7)" xlink:href="#DejaVuSans-51"/>
      </g>
     </g>
    </g>
    <g id="ytick_44">
     <g id="line2d_121">
      <g>
       <use style="stroke:#000000;stroke-width:0.8;" x="591.545455" xlink:href="#m4691912ac4" y="107.913181"/>
      </g>
     </g>
     <g id="text_23">
      <!-- $\mathdefault{10^{-2}}$ -->
      <g transform="translate(561.045455 111.7124)scale(0.1 -0.1)">
       <use transform="translate(0 0.765625)" xlink:href="#DejaVuSans-49"/>
       <use transform="translate(63.623047 0.765625)" xlink:href="#DejaVuSans-48"/>
       <use transform="translate(128.203125 39.046875)scale(0.7)" xlink:href="#DejaVuSans-8722"/>
       <use transform="translate(186.855469 39.046875)scale(0.7)" xlink:href="#DejaVuSans-50"/>
      </g>
     </g>
    </g>
    <g id="ytick_45">
     <g id="line2d_122">
      <g>
       <use style="stroke:#000000;stroke-width:0.8;" x="591.545455" xlink:href="#m4691912ac4" y="66.495817"/>
      </g>
     </g>
     <g id="text_24">
      <!-- $\mathdefault{10^{-1}}$ -->
      <g transform="translate(561.045455 70.295036)scale(0.1 -0.1)">
       <use transform="translate(0 0.684375)" xlink:href="#DejaVuSans-49"/>
       <use transform="translate(63.623047 0.684375)" xlink:href="#DejaVuSans-48"/>
       <use transform="translate(128.203125 38.965625)scale(0.7)" xlink:href="#DejaVuSans-8722"/>
       <use transform="translate(186.855469 38.965625)scale(0.7)" xlink:href="#DejaVuSans-49"/>
      </g>
     </g>
    </g>
    <g id="ytick_46">
     <g id="line2d_123">
      <g>
       <use style="stroke:#000000;stroke-width:0.6;" x="591.545455" xlink:href="#m4f95f68364" y="302.532131"/>
      </g>
     </g>
    </g>
    <g id="ytick_47">
     <g id="line2d_124">
      <g>
       <use style="stroke:#000000;stroke-width:0.6;" x="591.545455" xlink:href="#m4f95f68364" y="295.238895"/>
      </g>
     </g>
    </g>
    <g id="ytick_48">
     <g id="line2d_125">
      <g>
       <use style="stroke:#000000;stroke-width:0.6;" x="591.545455" xlink:href="#m4f95f68364" y="290.064262"/>
      </g>
     </g>
    </g>
    <g id="ytick_49">
     <g id="line2d_126">
      <g>
       <use style="stroke:#000000;stroke-width:0.6;" x="591.545455" xlink:href="#m4f95f68364" y="286.050505"/>
      </g>
     </g>
    </g>
    <g id="ytick_50">
     <g id="line2d_127">
      <g>
       <use style="stroke:#000000;stroke-width:0.6;" x="591.545455" xlink:href="#m4f95f68364" y="282.771027"/>
      </g>
     </g>
    </g>
    <g id="ytick_51">
     <g id="line2d_128">
      <g>
       <use style="stroke:#000000;stroke-width:0.6;" x="591.545455" xlink:href="#m4f95f68364" y="279.998267"/>
      </g>
     </g>
    </g>
    <g id="ytick_52">
     <g id="line2d_129">
      <g>
       <use style="stroke:#000000;stroke-width:0.6;" x="591.545455" xlink:href="#m4f95f68364" y="277.596393"/>
      </g>
     </g>
    </g>
    <g id="ytick_53">
     <g id="line2d_130">
      <g>
       <use style="stroke:#000000;stroke-width:0.6;" x="591.545455" xlink:href="#m4f95f68364" y="275.477791"/>
      </g>
     </g>
    </g>
    <g id="ytick_54">
     <g id="line2d_131">
      <g>
       <use style="stroke:#000000;stroke-width:0.6;" x="591.545455" xlink:href="#m4f95f68364" y="261.114767"/>
      </g>
     </g>
    </g>
    <g id="ytick_55">
     <g id="line2d_132">
      <g>
       <use style="stroke:#000000;stroke-width:0.6;" x="591.545455" xlink:href="#m4f95f68364" y="253.821532"/>
      </g>
     </g>
    </g>
    <g id="ytick_56">
     <g id="line2d_133">
      <g>
       <use style="stroke:#000000;stroke-width:0.6;" x="591.545455" xlink:href="#m4f95f68364" y="248.646899"/>
      </g>
     </g>
    </g>
    <g id="ytick_57">
     <g id="line2d_134">
      <g>
       <use style="stroke:#000000;stroke-width:0.6;" x="591.545455" xlink:href="#m4f95f68364" y="244.633141"/>
      </g>
     </g>
    </g>
    <g id="ytick_58">
     <g id="line2d_135">
      <g>
       <use style="stroke:#000000;stroke-width:0.6;" x="591.545455" xlink:href="#m4f95f68364" y="241.353663"/>
      </g>
     </g>
    </g>
    <g id="ytick_59">
     <g id="line2d_136">
      <g>
       <use style="stroke:#000000;stroke-width:0.6;" x="591.545455" xlink:href="#m4f95f68364" y="238.580903"/>
      </g>
     </g>
    </g>
    <g id="ytick_60">
     <g id="line2d_137">
      <g>
       <use style="stroke:#000000;stroke-width:0.6;" x="591.545455" xlink:href="#m4f95f68364" y="236.17903"/>
      </g>
     </g>
    </g>
    <g id="ytick_61">
     <g id="line2d_138">
      <g>
       <use style="stroke:#000000;stroke-width:0.6;" x="591.545455" xlink:href="#m4f95f68364" y="234.060427"/>
      </g>
     </g>
    </g>
    <g id="ytick_62">
     <g id="line2d_139">
      <g>
       <use style="stroke:#000000;stroke-width:0.6;" x="591.545455" xlink:href="#m4f95f68364" y="219.697404"/>
      </g>
     </g>
    </g>
    <g id="ytick_63">
     <g id="line2d_140">
      <g>
       <use style="stroke:#000000;stroke-width:0.6;" x="591.545455" xlink:href="#m4f95f68364" y="212.404168"/>
      </g>
     </g>
    </g>
    <g id="ytick_64">
     <g id="line2d_141">
      <g>
       <use style="stroke:#000000;stroke-width:0.6;" x="591.545455" xlink:href="#m4f95f68364" y="207.229535"/>
      </g>
     </g>
    </g>
    <g id="ytick_65">
     <g id="line2d_142">
      <g>
       <use style="stroke:#000000;stroke-width:0.6;" x="591.545455" xlink:href="#m4f95f68364" y="203.215777"/>
      </g>
     </g>
    </g>
    <g id="ytick_66">
     <g id="line2d_143">
      <g>
       <use style="stroke:#000000;stroke-width:0.6;" x="591.545455" xlink:href="#m4f95f68364" y="199.936299"/>
      </g>
     </g>
    </g>
    <g id="ytick_67">
     <g id="line2d_144">
      <g>
       <use style="stroke:#000000;stroke-width:0.6;" x="591.545455" xlink:href="#m4f95f68364" y="197.163539"/>
      </g>
     </g>
    </g>
    <g id="ytick_68">
     <g id="line2d_145">
      <g>
       <use style="stroke:#000000;stroke-width:0.6;" x="591.545455" xlink:href="#m4f95f68364" y="194.761666"/>
      </g>
     </g>
    </g>
    <g id="ytick_69">
     <g id="line2d_146">
      <g>
       <use style="stroke:#000000;stroke-width:0.6;" x="591.545455" xlink:href="#m4f95f68364" y="192.643063"/>
      </g>
     </g>
    </g>
    <g id="ytick_70">
     <g id="line2d_147">
      <g>
       <use style="stroke:#000000;stroke-width:0.6;" x="591.545455" xlink:href="#m4f95f68364" y="178.28004"/>
      </g>
     </g>
    </g>
    <g id="ytick_71">
     <g id="line2d_148">
      <g>
       <use style="stroke:#000000;stroke-width:0.6;" x="591.545455" xlink:href="#m4f95f68364" y="170.986804"/>
      </g>
     </g>
    </g>
    <g id="ytick_72">
     <g id="line2d_149">
      <g>
       <use style="stroke:#000000;stroke-width:0.6;" x="591.545455" xlink:href="#m4f95f68364" y="165.812171"/>
      </g>
     </g>
    </g>
    <g id="ytick_73">
     <g id="line2d_150">
      <g>
       <use style="stroke:#000000;stroke-width:0.6;" x="591.545455" xlink:href="#m4f95f68364" y="161.798414"/>
      </g>
     </g>
    </g>
    <g id="ytick_74">
     <g id="line2d_151">
      <g>
       <use style="stroke:#000000;stroke-width:0.6;" x="591.545455" xlink:href="#m4f95f68364" y="158.518935"/>
      </g>
     </g>
    </g>
    <g id="ytick_75">
     <g id="line2d_152">
      <g>
       <use style="stroke:#000000;stroke-width:0.6;" x="591.545455" xlink:href="#m4f95f68364" y="155.746176"/>
      </g>
     </g>
    </g>
    <g id="ytick_76">
     <g id="line2d_153">
      <g>
       <use style="stroke:#000000;stroke-width:0.6;" x="591.545455" xlink:href="#m4f95f68364" y="153.344302"/>
      </g>
     </g>
    </g>
    <g id="ytick_77">
     <g id="line2d_154">
      <g>
       <use style="stroke:#000000;stroke-width:0.6;" x="591.545455" xlink:href="#m4f95f68364" y="151.225699"/>
      </g>
     </g>
    </g>
    <g id="ytick_78">
     <g id="line2d_155">
      <g>
       <use style="stroke:#000000;stroke-width:0.6;" x="591.545455" xlink:href="#m4f95f68364" y="136.862676"/>
      </g>
     </g>
    </g>
    <g id="ytick_79">
     <g id="line2d_156">
      <g>
       <use style="stroke:#000000;stroke-width:0.6;" x="591.545455" xlink:href="#m4f95f68364" y="129.56944"/>
      </g>
     </g>
    </g>
    <g id="ytick_80">
     <g id="line2d_157">
      <g>
       <use style="stroke:#000000;stroke-width:0.6;" x="591.545455" xlink:href="#m4f95f68364" y="124.394807"/>
      </g>
     </g>
    </g>
    <g id="ytick_81">
     <g id="line2d_158">
      <g>
       <use style="stroke:#000000;stroke-width:0.6;" x="591.545455" xlink:href="#m4f95f68364" y="120.38105"/>
      </g>
     </g>
    </g>
    <g id="ytick_82">
     <g id="line2d_159">
      <g>
       <use style="stroke:#000000;stroke-width:0.6;" x="591.545455" xlink:href="#m4f95f68364" y="117.101571"/>
      </g>
     </g>
    </g>
    <g id="ytick_83">
     <g id="line2d_160">
      <g>
       <use style="stroke:#000000;stroke-width:0.6;" x="591.545455" xlink:href="#m4f95f68364" y="114.328812"/>
      </g>
     </g>
    </g>
    <g id="ytick_84">
     <g id="line2d_161">
      <g>
       <use style="stroke:#000000;stroke-width:0.6;" x="591.545455" xlink:href="#m4f95f68364" y="111.926938"/>
      </g>
     </g>
    </g>
    <g id="ytick_85">
     <g id="line2d_162">
      <g>
       <use style="stroke:#000000;stroke-width:0.6;" x="591.545455" xlink:href="#m4f95f68364" y="109.808336"/>
      </g>
     </g>
    </g>
    <g id="ytick_86">
     <g id="line2d_163">
      <g>
       <use style="stroke:#000000;stroke-width:0.6;" x="591.545455" xlink:href="#m4f95f68364" y="95.445312"/>
      </g>
     </g>
    </g>
    <g id="ytick_87">
     <g id="line2d_164">
      <g>
       <use style="stroke:#000000;stroke-width:0.6;" x="591.545455" xlink:href="#m4f95f68364" y="88.152076"/>
      </g>
     </g>
    </g>
    <g id="ytick_88">
     <g id="line2d_165">
      <g>
       <use style="stroke:#000000;stroke-width:0.6;" x="591.545455" xlink:href="#m4f95f68364" y="82.977443"/>
      </g>
     </g>
    </g>
    <g id="ytick_89">
     <g id="line2d_166">
      <g>
       <use style="stroke:#000000;stroke-width:0.6;" x="591.545455" xlink:href="#m4f95f68364" y="78.963686"/>
      </g>
     </g>
    </g>
    <g id="ytick_90">
     <g id="line2d_167">
      <g>
       <use style="stroke:#000000;stroke-width:0.6;" x="591.545455" xlink:href="#m4f95f68364" y="75.684208"/>
      </g>
     </g>
    </g>
    <g id="ytick_91">
     <g id="line2d_168">
      <g>
       <use style="stroke:#000000;stroke-width:0.6;" x="591.545455" xlink:href="#m4f95f68364" y="72.911448"/>
      </g>
     </g>
    </g>
    <g id="ytick_92">
     <g id="line2d_169">
      <g>
       <use style="stroke:#000000;stroke-width:0.6;" x="591.545455" xlink:href="#m4f95f68364" y="70.509575"/>
      </g>
     </g>
    </g>
    <g id="ytick_93">
     <g id="line2d_170">
      <g>
       <use style="stroke:#000000;stroke-width:0.6;" x="591.545455" xlink:href="#m4f95f68364" y="68.390972"/>
      </g>
     </g>
    </g>
    <g id="ytick_94">
     <g id="line2d_171">
      <g>
       <use style="stroke:#000000;stroke-width:0.6;" x="591.545455" xlink:href="#m4f95f68364" y="54.027948"/>
      </g>
     </g>
    </g>
    <g id="ytick_95">
     <g id="line2d_172">
      <g>
       <use style="stroke:#000000;stroke-width:0.6;" x="591.545455" xlink:href="#m4f95f68364" y="46.734713"/>
      </g>
     </g>
    </g>
   </g>
   <g id="line2d_173">
    <path clip-path="url(#pea47b439dc)" d="M 608.838843 66.819922 
L 627.194661 90.190557 
L 639.285329 85.015924 
L 648.315969 109.951662 
L 655.526795 109.951662 
L 664.192622 102.658426 
L 673.223262 93.470036 
L 682.031401 109.951662 
M 698.130555 122.419531 
L 706.938694 122.419531 
L 715.882432 112.724421 
L 724.022392 115.126295 
L 732.234462 153.083401 
L 740.789725 137.660159 
L 749.412023 161.94174 
L 757.90633 145.790166 
L 766.300959 169.889132 
L 774.676868 125.19229 
L 783.002251 149.069644 
L 791.432138 162.914265 
L 799.820567 186.370759 
M 816.598881 182.51689 
L 824.991971 199.219999 
L 833.376853 178.423366 
L 841.763764 207.611107 
L 850.161449 186.877477 
L 858.549425 215.976246 
L 866.926813 191.2082 
L 875.307408 192.145551 
L 883.691524 228.56757 
L 892.079017 220.314108 
L 900.462533 224.482929 
M 925.610627 249.549429 
M 950.759767 262.14331 
" style="fill:none;stroke:#1f77b4;stroke-linecap:square;stroke-width:3;"/>
   </g>
   <g id="line2d_174">
    <path clip-path="url(#pea47b439dc)" d="M 658.653429 80.11669 
L 664.192622 83.689047 
L 668.99089 86.783564 
L 673.223262 89.513121 
L 677.009247 91.954792 
L 680.434088 94.163553 
L 683.560722 96.179994 
L 696.076645 104.251809 
L 700.073386 106.829402 
L 705.341381 110.226857 
L 709.934898 113.189325 
L 711.34424 114.098243 
L 712.700387 114.972854 
L 716.486373 117.414526 
L 718.805476 118.910171 
L 720.983939 120.315113 
L 722.025566 120.986883 
L 723.037848 121.639728 
L 725.914073 123.494673 
L 728.577041 125.212084 
L 736.936004 130.602978 
L 737.60768 131.036158 
L 742.571923 134.237716 
L 752.618422 140.71694 
L 753.484334 141.275388 
L 755.562001 142.615325 
L 756.360559 143.130334 
L 762.846161 147.313052 
L 772.852434 153.766334 
L 773.348078 154.085987 
L 773.59336 154.244175 
L 774.319316 154.712362 
L 775.728659 155.62128 
L 776.862306 156.352396 
L 777.084806 156.495891 
L 777.961279 157.06115 
L 778.177097 157.200336 
L 780.870791 158.937563 
L 781.464749 159.320621 
L 781.660573 159.446912 
L 785.368357 161.83815 
L 785.718932 162.064244 
L 786.91969 162.838641 
L 788.889149 164.108792 
L 791.949178 166.082277 
L 795.573465 168.419666 
L 813.636381 180.068868 
L 817.797385 182.752398 
L 820.744978 184.653371 
L 829.363766 190.211831 
L 829.415506 190.2452 
L 829.570281 190.345018 
L 833.097936 192.620086 
L 841.06025 197.755171 
L 846.465651 201.241243 
L 848.891159 202.80551 
L 851.27598 204.343538 
L 851.360299 204.397917 
L 857.864955 208.592924 
L 866.524089 214.177404 
L 868.667883 215.559988 
L 868.702552 215.582347 
L 869.693651 216.22153 
L 872.419167 217.97928 
L 875.400995 219.902331 
L 877.6175 221.331808 
L 877.913695 221.522831 
L 878.074232 221.626366 
L 878.918527 222.170871 
L 884.263484 225.61796 
L 890.281034 229.498821 
L 894.304775 232.093827 
L 902.034781 237.079091 
L 904.279288 238.526627 
L 922.933844 250.557392 
L 954.706612 271.048403 
" style="fill:none;stroke:#0000ff;stroke-dasharray:5.55,2.4;stroke-dashoffset:0;stroke-width:1.5;"/>
   </g>
   <g id="line2d_175">
    <path clip-path="url(#pea47b439dc)" d="M 658.653429 97.168209 
L 664.192622 99.297284 
L 668.99089 101.15397 
L 673.223262 102.80202 
L 677.009247 104.284983 
L 680.434088 105.63396 
L 683.560722 106.871951 
L 696.076645 111.89426 
L 700.073386 113.522187 
L 705.341381 115.687181 
L 709.934898 117.593735 
L 711.34424 118.182323 
L 712.700387 118.750348 
L 716.486373 120.344883 
L 718.805476 121.32815 
L 720.983939 122.256435 
L 722.025566 122.701913 
L 723.037848 123.135859 
L 725.914073 124.37441 
L 728.577041 125.528631 
L 736.936004 129.200735 
L 737.60768 129.499157 
L 742.571923 131.72093 
L 752.618422 136.309127 
L 753.484334 136.710642 
L 755.562001 137.678123 
L 756.360559 138.051531 
L 762.846161 141.117155 
L 772.852434 145.968652 
L 773.348078 146.213017 
L 773.59336 146.334094 
L 774.319316 146.693014 
L 775.728659 147.392263 
L 776.862306 147.957104 
L 777.084806 148.068215 
L 777.961279 148.506716 
L 778.177097 148.614888 
L 780.870791 149.971702 
L 781.464749 150.272562 
L 781.660573 150.371888 
L 785.368357 152.26536 
L 785.718932 152.445665 
L 786.91969 153.06493 
L 788.889149 154.086395 
L 791.949178 155.687972 
L 795.573465 157.608321 
L 813.636381 167.590082 
L 817.797385 169.994962 
L 820.744978 171.724435 
L 829.363766 176.911044 
L 829.415506 176.942786 
L 829.570281 177.037782 
L 833.097936 179.221202 
L 841.06025 184.282942 
L 846.465651 187.830588 
L 848.891159 189.453282 
L 851.27598 191.067977 
L 851.360299 191.125421 
L 857.864955 195.631979 
L 866.524089 201.872965 
L 868.667883 203.463163 
L 868.702552 203.489031 
L 869.693651 204.230618 
L 872.419167 206.29085 
L 875.400995 208.580668 
L 877.6175 210.307666 
L 877.913695 210.540084 
L 878.074232 210.666218 
L 878.918527 211.331462 
L 884.263484 215.618121 
L 890.281034 220.605908 
L 894.304775 224.041492 
L 902.034781 230.880724 
L 904.279288 232.928224 
L 922.933844 251.123608 
L 954.706612 287.876016 
" style="fill:none;stroke:#000000;stroke-dasharray:5.55,2.4;stroke-dashoffset:0;stroke-width:1.5;"/>
   </g>
   <g id="line2d_176">
    <path clip-path="url(#pea47b439dc)" d="M 658.653429 150.215267 
L 664.192622 150.232399 
L 668.99089 150.249532 
L 673.223262 150.266664 
L 677.009247 150.283796 
L 680.434088 150.300928 
L 683.560722 150.31806 
L 696.076645 150.403721 
L 700.073386 150.437985 
L 705.341381 150.489382 
L 709.934898 150.540778 
L 711.34424 150.557911 
L 712.700387 150.575043 
L 716.486373 150.626439 
L 718.805476 150.660704 
L 720.983939 150.694968 
L 722.025566 150.7121 
L 723.037848 150.729232 
L 725.914073 150.780629 
L 728.577041 150.832025 
L 736.936004 151.020479 
L 737.60768 151.037611 
L 742.571923 151.174669 
L 752.618422 151.517312 
L 753.484334 151.551577 
L 755.562001 151.637237 
L 756.360559 151.671502 
L 762.846161 151.979881 
L 772.852434 152.579507 
L 773.348078 152.613771 
L 773.59336 152.630903 
L 774.319316 152.6823 
L 775.728659 152.785093 
L 776.862306 152.870754 
L 777.084806 152.887886 
L 777.961279 152.956415 
L 778.177097 152.973547 
L 780.870791 153.196265 
L 781.464749 153.247662 
L 781.660573 153.264794 
L 785.368357 153.607437 
L 785.718932 153.641702 
L 786.91969 153.761627 
L 788.889149 153.967213 
L 791.949178 154.309856 
L 795.573465 154.755293 
L 813.636381 157.787687 
L 817.797385 158.729957 
L 820.744978 159.46664 
L 829.363766 162.002202 
L 829.415506 162.019334 
L 829.570281 162.07073 
L 833.097936 163.304247 
L 841.06025 166.576491 
L 846.465651 169.24911 
L 848.891159 170.58542 
L 851.27598 171.990258 
L 851.360299 172.041654 
L 857.864955 176.393226 
L 866.524089 183.554474 
L 868.667883 185.610335 
L 868.702552 185.644599 
L 869.693651 186.638265 
L 872.419167 189.51647 
L 875.400995 192.925772 
L 877.6175 195.649787 
L 877.913695 196.026695 
L 878.074232 196.232281 
L 878.918527 197.32874 
L 884.263484 204.90116 
L 890.281034 214.889216 
L 894.304775 222.56443 
L 902.034781 239.953584 
L 904.279288 245.744258 
L 922.933844 310.82938 
L 929.913425 361 
" style="fill:none;stroke:#ff0000;stroke-dasharray:5.55,2.4;stroke-dashoffset:0;stroke-width:1.5;"/>
   </g>
   <g id="patch_9">
    <path d="M 591.545455 315 
L 591.545455 43.2 
" style="fill:none;stroke:#000000;stroke-linecap:square;stroke-linejoin:miter;stroke-width:0.8;"/>
   </g>
   <g id="patch_10">
    <path d="M 972 315 
L 972 43.2 
" style="fill:none;stroke:#000000;stroke-linecap:square;stroke-linejoin:miter;stroke-width:0.8;"/>
   </g>
   <g id="patch_11">
    <path d="M 591.545455 315 
L 972 315 
" style="fill:none;stroke:#000000;stroke-linecap:square;stroke-linejoin:miter;stroke-width:0.8;"/>
   </g>
   <g id="patch_12">
    <path d="M 591.545455 43.2 
L 972 43.2 
" style="fill:none;stroke:#000000;stroke-linecap:square;stroke-linejoin:miter;stroke-width:0.8;"/>
   </g>
   <g id="text_25">
    <!-- Motif distribution -->
    <g transform="translate(717.925462 37.2)scale(0.15 -0.15)">
     <defs>
      <path d="M 9.8125 72.90625 
L 24.515625 72.90625 
L 43.109375 23.296875 
L 61.8125 72.90625 
L 76.515625 72.90625 
L 76.515625 0 
L 66.890625 0 
L 66.890625 64.015625 
L 48.09375 14.015625 
L 38.1875 14.015625 
L 19.390625 64.015625 
L 19.390625 0 
L 9.8125 0 
z
" id="DejaVuSans-77"/>
      <path d="M 37.109375 75.984375 
L 37.109375 68.5 
L 28.515625 68.5 
Q 23.6875 68.5 21.796875 66.546875 
Q 19.921875 64.59375 19.921875 59.515625 
L 19.921875 54.6875 
L 34.71875 54.6875 
L 34.71875 47.703125 
L 19.921875 47.703125 
L 19.921875 0 
L 10.890625 0 
L 10.890625 47.703125 
L 2.296875 47.703125 
L 2.296875 54.6875 
L 10.890625 54.6875 
L 10.890625 58.5 
Q 10.890625 67.625 15.140625 71.796875 
Q 19.390625 75.984375 28.609375 75.984375 
z
" id="DejaVuSans-102"/>
     </defs>
     <use xlink:href="#DejaVuSans-77"/>
     <use x="86.279297" xlink:href="#DejaVuSans-111"/>
     <use x="147.460938" xlink:href="#DejaVuSans-116"/>
     <use x="186.669922" xlink:href="#DejaVuSans-105"/>
     <use x="214.453125" xlink:href="#DejaVuSans-102"/>
     <use x="249.658203" xlink:href="#DejaVuSans-32"/>
     <use x="281.445312" xlink:href="#DejaVuSans-100"/>
     <use x="344.921875" xlink:href="#DejaVuSans-105"/>
     <use x="372.705078" xlink:href="#DejaVuSans-115"/>
     <use x="424.804688" xlink:href="#DejaVuSans-116"/>
     <use x="464.013672" xlink:href="#DejaVuSans-114"/>
     <use x="505.126953" xlink:href="#DejaVuSans-105"/>
     <use x="532.910156" xlink:href="#DejaVuSans-98"/>
     <use x="596.386719" xlink:href="#DejaVuSans-117"/>
     <use x="659.765625" xlink:href="#DejaVuSans-116"/>
     <use x="698.974609" xlink:href="#DejaVuSans-105"/>
     <use x="726.757812" xlink:href="#DejaVuSans-111"/>
     <use x="787.939453" xlink:href="#DejaVuSans-110"/>
    </g>
   </g>
  </g>
 </g>
 <defs>
  <clipPath id="p0a8e0d7a6c">
   <rect height="271.8" width="380.454545" x="135" y="43.2"/>
  </clipPath>
  <clipPath id="pea47b439dc">
   <rect height="271.8" width="380.454545" x="591.545455" y="43.2"/>
  </clipPath>
 </defs>
</svg>
