<?xml version="1.0" encoding="utf-8" standalone="no"?>
<!DOCTYPE svg PUBLIC "-//W3C//DTD SVG 1.1//EN"
  "http://www.w3.org/Graphics/SVG/1.1/DTD/svg11.dtd">
<!-- Created with matplotlib (https://matplotlib.org/) -->
<svg height="240pt" version="1.1" viewBox="0 0 1152 240" width="1152pt" xmlns="http://www.w3.org/2000/svg" xmlns:xlink="http://www.w3.org/1999/xlink">
 <metadata>
  <rdf:RDF xmlns:cc="http://creativecommons.org/ns#" xmlns:dc="http://purl.org/dc/elements/1.1/" xmlns:rdf="http://www.w3.org/1999/02/22-rdf-syntax-ns#">
   <cc:Work>
    <dc:type rdf:resource="http://purl.org/dc/dcmitype/StillImage"/>
    <dc:date>2021-09-05T11:08:10.351067</dc:date>
    <dc:format>image/svg+xml</dc:format>
    <dc:creator>
     <cc:Agent>
      <dc:title>Matplotlib v3.3.4, https://matplotlib.org/</dc:title>
     </cc:Agent>
    </dc:creator>
   </cc:Work>
  </rdf:RDF>
 </metadata>
 <defs>
  <style type="text/css">*{stroke-linecap:butt;stroke-linejoin:round;}</style>
 </defs>
 <g id="figure_1">
  <g id="patch_1">
   <path d="M 0 240 
L 1152 240 
L 1152 0 
L 0 0 
z
" style="fill:none;"/>
  </g>
  <g id="axes_1">
   <g id="patch_2">
    <path d="M 144 210 
L 406.588235 210 
L 406.588235 28.8 
L 144 28.8 
z
" style="fill:#ffffff;"/>
   </g>
   <g id="patch_3">
    <path clip-path="url(#p75dd7c430d)" d="M 155.935829 210 
L 166.314811 210 
L 166.314811 37.428571 
L 155.935829 37.428571 
z
" style="fill:#7fc3c0;"/>
   </g>
   <g id="patch_4">
    <path clip-path="url(#p75dd7c430d)" d="M 207.830737 210 
L 218.209719 210 
L 218.209719 113.719215 
L 207.830737 113.719215 
z
" style="fill:#7fc3c0;"/>
   </g>
   <g id="patch_5">
    <path clip-path="url(#p75dd7c430d)" d="M 259.725645 210 
L 270.104627 210 
L 270.104627 129.456135 
L 259.725645 129.456135 
z
" style="fill:#7fc3c0;"/>
   </g>
   <g id="patch_6">
    <path clip-path="url(#p75dd7c430d)" d="M 311.620553 210 
L 321.999535 210 
L 321.999535 143.564679 
L 311.620553 143.564679 
z
" style="fill:#7fc3c0;"/>
   </g>
   <g id="patch_7">
    <path clip-path="url(#p75dd7c430d)" d="M 363.515462 210 
L 373.894443 210 
L 373.894443 142.27656 
L 363.515462 142.27656 
z
" style="fill:#7fc3c0;"/>
   </g>
   <g id="patch_8">
    <path clip-path="url(#p75dd7c430d)" d="M 166.314811 210 
L 176.693792 210 
L 176.693792 128.605491 
L 166.314811 128.605491 
z
" style="fill:#cfb845;"/>
   </g>
   <g id="patch_9">
    <path clip-path="url(#p75dd7c430d)" d="M 218.209719 210 
L 228.5887 210 
L 228.5887 136.881045 
L 218.209719 136.881045 
z
" style="fill:#cfb845;"/>
   </g>
   <g id="patch_10">
    <path clip-path="url(#p75dd7c430d)" d="M 270.104627 210 
L 280.483608 210 
L 280.483608 148.729305 
L 270.104627 148.729305 
z
" style="fill:#cfb845;"/>
   </g>
   <g id="patch_11">
    <path clip-path="url(#p75dd7c430d)" d="M 321.999535 210 
L 332.378517 210 
L 332.378517 165.341173 
L 321.999535 165.341173 
z
" style="fill:#cfb845;"/>
   </g>
   <g id="patch_12">
    <path clip-path="url(#p75dd7c430d)" d="M 373.894443 210 
L 384.273425 210 
L 384.273425 166.289034 
L 373.894443 166.289034 
z
" style="fill:#cfb845;"/>
   </g>
   <g id="patch_13">
    <path clip-path="url(#p75dd7c430d)" d="M 176.693792 210 
L 187.072774 210 
L 187.072774 64.551973 
L 176.693792 64.551973 
z
" style="fill:#141414;"/>
   </g>
   <g id="patch_14">
    <path clip-path="url(#p75dd7c430d)" d="M 228.5887 210 
L 238.967682 210 
L 238.967682 136.820284 
L 228.5887 136.820284 
z
" style="fill:#141414;"/>
   </g>
   <g id="patch_15">
    <path clip-path="url(#p75dd7c430d)" d="M 280.483608 210 
L 290.86259 210 
L 290.86259 149.76223 
L 280.483608 149.76223 
z
" style="fill:#141414;"/>
   </g>
   <g id="patch_16">
    <path clip-path="url(#p75dd7c430d)" d="M 332.378517 210 
L 342.757498 210 
L 342.757498 157.977024 
L 332.378517 157.977024 
z
" style="fill:#141414;"/>
   </g>
   <g id="patch_17">
    <path clip-path="url(#p75dd7c430d)" d="M 384.273425 210 
L 394.652406 210 
L 394.652406 161.634794 
L 384.273425 161.634794 
z
" style="fill:#141414;"/>
   </g>
   <g id="matplotlib.axis_1">
    <g id="xtick_1">
     <g id="line2d_1">
      <defs>
       <path d="M 0 0 
L 0 3.5 
" id="mca3655ed62" style="stroke:#000000;stroke-width:0.8;"/>
      </defs>
      <g>
       <use style="stroke:#000000;stroke-width:0.8;" x="171.504301" xlink:href="#mca3655ed62" y="210"/>
      </g>
     </g>
     <g id="text_1">
      <!-- USA -->
      <g transform="translate(155.982817 228.397656)scale(0.15 -0.15)">
       <defs>
        <path d="M 8.6875 72.90625 
L 18.609375 72.90625 
L 18.609375 28.609375 
Q 18.609375 16.890625 22.84375 11.734375 
Q 27.09375 6.59375 36.625 6.59375 
Q 46.09375 6.59375 50.34375 11.734375 
Q 54.59375 16.890625 54.59375 28.609375 
L 54.59375 72.90625 
L 64.5 72.90625 
L 64.5 27.390625 
Q 64.5 13.140625 57.4375 5.859375 
Q 50.390625 -1.421875 36.625 -1.421875 
Q 22.796875 -1.421875 15.734375 5.859375 
Q 8.6875 13.140625 8.6875 27.390625 
z
" id="DejaVuSans-85"/>
        <path d="M 53.515625 70.515625 
L 53.515625 60.890625 
Q 47.90625 63.578125 42.921875 64.890625 
Q 37.9375 66.21875 33.296875 66.21875 
Q 25.25 66.21875 20.875 63.09375 
Q 16.5 59.96875 16.5 54.203125 
Q 16.5 49.359375 19.40625 46.890625 
Q 22.3125 44.4375 30.421875 42.921875 
L 36.375 41.703125 
Q 47.40625 39.59375 52.65625 34.296875 
Q 57.90625 29 57.90625 20.125 
Q 57.90625 9.515625 50.796875 4.046875 
Q 43.703125 -1.421875 29.984375 -1.421875 
Q 24.8125 -1.421875 18.96875 -0.25 
Q 13.140625 0.921875 6.890625 3.21875 
L 6.890625 13.375 
Q 12.890625 10.015625 18.65625 8.296875 
Q 24.421875 6.59375 29.984375 6.59375 
Q 38.421875 6.59375 43.015625 9.90625 
Q 47.609375 13.234375 47.609375 19.390625 
Q 47.609375 24.75 44.3125 27.78125 
Q 41.015625 30.8125 33.5 32.328125 
L 27.484375 33.5 
Q 16.453125 35.6875 11.515625 40.375 
Q 6.59375 45.0625 6.59375 53.421875 
Q 6.59375 63.09375 13.40625 68.65625 
Q 20.21875 74.21875 32.171875 74.21875 
Q 37.3125 74.21875 42.625 73.28125 
Q 47.953125 72.359375 53.515625 70.515625 
z
" id="DejaVuSans-83"/>
        <path d="M 34.1875 63.1875 
L 20.796875 26.90625 
L 47.609375 26.90625 
z
M 28.609375 72.90625 
L 39.796875 72.90625 
L 67.578125 0 
L 57.328125 0 
L 50.6875 18.703125 
L 17.828125 18.703125 
L 11.1875 0 
L 0.78125 0 
z
" id="DejaVuSans-65"/>
       </defs>
       <use xlink:href="#DejaVuSans-85"/>
       <use x="73.193359" xlink:href="#DejaVuSans-83"/>
       <use x="138.544922" xlink:href="#DejaVuSans-65"/>
      </g>
     </g>
    </g>
    <g id="xtick_2">
     <g id="line2d_2">
      <g>
       <use style="stroke:#000000;stroke-width:0.8;" x="223.399209" xlink:href="#mca3655ed62" y="210"/>
      </g>
     </g>
     <g id="text_2">
      <!-- UKG -->
      <g transform="translate(207.180459 228.397656)scale(0.15 -0.15)">
       <defs>
        <path d="M 9.8125 72.90625 
L 19.671875 72.90625 
L 19.671875 42.09375 
L 52.390625 72.90625 
L 65.09375 72.90625 
L 28.90625 38.921875 
L 67.671875 0 
L 54.6875 0 
L 19.671875 35.109375 
L 19.671875 0 
L 9.8125 0 
z
" id="DejaVuSans-75"/>
        <path d="M 59.515625 10.40625 
L 59.515625 29.984375 
L 43.40625 29.984375 
L 43.40625 38.09375 
L 69.28125 38.09375 
L 69.28125 6.78125 
Q 63.578125 2.734375 56.6875 0.65625 
Q 49.8125 -1.421875 42 -1.421875 
Q 24.90625 -1.421875 15.25 8.5625 
Q 5.609375 18.5625 5.609375 36.375 
Q 5.609375 54.25 15.25 64.234375 
Q 24.90625 74.21875 42 74.21875 
Q 49.125 74.21875 55.546875 72.453125 
Q 61.96875 70.703125 67.390625 67.28125 
L 67.390625 56.78125 
Q 61.921875 61.421875 55.765625 63.765625 
Q 49.609375 66.109375 42.828125 66.109375 
Q 29.4375 66.109375 22.71875 58.640625 
Q 16.015625 51.171875 16.015625 36.375 
Q 16.015625 21.625 22.71875 14.15625 
Q 29.4375 6.6875 42.828125 6.6875 
Q 48.046875 6.6875 52.140625 7.59375 
Q 56.25 8.5 59.515625 10.40625 
z
" id="DejaVuSans-71"/>
       </defs>
       <use xlink:href="#DejaVuSans-85"/>
       <use x="73.193359" xlink:href="#DejaVuSans-75"/>
       <use x="138.769531" xlink:href="#DejaVuSans-71"/>
      </g>
     </g>
    </g>
    <g id="xtick_3">
     <g id="line2d_3">
      <g>
       <use style="stroke:#000000;stroke-width:0.8;" x="275.294118" xlink:href="#mca3655ed62" y="210"/>
      </g>
     </g>
     <g id="text_3">
      <!-- FRN -->
      <g transform="translate(260.15818 228.397656)scale(0.15 -0.15)">
       <defs>
        <path d="M 9.8125 72.90625 
L 51.703125 72.90625 
L 51.703125 64.59375 
L 19.671875 64.59375 
L 19.671875 43.109375 
L 48.578125 43.109375 
L 48.578125 34.8125 
L 19.671875 34.8125 
L 19.671875 0 
L 9.8125 0 
z
" id="DejaVuSans-70"/>
        <path d="M 44.390625 34.1875 
Q 47.5625 33.109375 50.5625 29.59375 
Q 53.5625 26.078125 56.59375 19.921875 
L 66.609375 0 
L 56 0 
L 46.6875 18.703125 
Q 43.0625 26.03125 39.671875 28.421875 
Q 36.28125 30.8125 30.421875 30.8125 
L 19.671875 30.8125 
L 19.671875 0 
L 9.8125 0 
L 9.8125 72.90625 
L 32.078125 72.90625 
Q 44.578125 72.90625 50.734375 67.671875 
Q 56.890625 62.453125 56.890625 51.90625 
Q 56.890625 45.015625 53.6875 40.46875 
Q 50.484375 35.9375 44.390625 34.1875 
z
M 19.671875 64.796875 
L 19.671875 38.921875 
L 32.078125 38.921875 
Q 39.203125 38.921875 42.84375 42.21875 
Q 46.484375 45.515625 46.484375 51.90625 
Q 46.484375 58.296875 42.84375 61.546875 
Q 39.203125 64.796875 32.078125 64.796875 
z
" id="DejaVuSans-82"/>
        <path d="M 9.8125 72.90625 
L 23.09375 72.90625 
L 55.421875 11.921875 
L 55.421875 72.90625 
L 64.984375 72.90625 
L 64.984375 0 
L 51.703125 0 
L 19.390625 60.984375 
L 19.390625 0 
L 9.8125 0 
z
" id="DejaVuSans-78"/>
       </defs>
       <use xlink:href="#DejaVuSans-70"/>
       <use x="57.519531" xlink:href="#DejaVuSans-82"/>
       <use x="127.001953" xlink:href="#DejaVuSans-78"/>
      </g>
     </g>
    </g>
    <g id="xtick_4">
     <g id="line2d_4">
      <g>
       <use style="stroke:#000000;stroke-width:0.8;" x="327.189026" xlink:href="#mca3655ed62" y="210"/>
      </g>
     </g>
     <g id="text_4">
      <!-- TUR -->
      <g transform="translate(311.907776 228.397656)scale(0.15 -0.15)">
       <defs>
        <path d="M -0.296875 72.90625 
L 61.375 72.90625 
L 61.375 64.59375 
L 35.5 64.59375 
L 35.5 0 
L 25.59375 0 
L 25.59375 64.59375 
L -0.296875 64.59375 
z
" id="DejaVuSans-84"/>
       </defs>
       <use xlink:href="#DejaVuSans-84"/>
       <use x="61.083984" xlink:href="#DejaVuSans-85"/>
       <use x="134.277344" xlink:href="#DejaVuSans-82"/>
      </g>
     </g>
    </g>
    <g id="xtick_5">
     <g id="line2d_5">
      <g>
       <use style="stroke:#000000;stroke-width:0.8;" x="379.083934" xlink:href="#mca3655ed62" y="210"/>
      </g>
     </g>
     <g id="text_5">
      <!-- GMY -->
      <g transform="translate(362.220653 228.397656)scale(0.15 -0.15)">
       <defs>
        <path d="M 9.8125 72.90625 
L 24.515625 72.90625 
L 43.109375 23.296875 
L 61.8125 72.90625 
L 76.515625 72.90625 
L 76.515625 0 
L 66.890625 0 
L 66.890625 64.015625 
L 48.09375 14.015625 
L 38.1875 14.015625 
L 19.390625 64.015625 
L 19.390625 0 
L 9.8125 0 
z
" id="DejaVuSans-77"/>
        <path d="M -0.203125 72.90625 
L 10.40625 72.90625 
L 30.609375 42.921875 
L 50.6875 72.90625 
L 61.28125 72.90625 
L 35.5 34.71875 
L 35.5 0 
L 25.59375 0 
L 25.59375 34.71875 
z
" id="DejaVuSans-89"/>
       </defs>
       <use xlink:href="#DejaVuSans-71"/>
       <use x="77.490234" xlink:href="#DejaVuSans-77"/>
       <use x="163.769531" xlink:href="#DejaVuSans-89"/>
      </g>
     </g>
    </g>
   </g>
   <g id="matplotlib.axis_2">
    <g id="ytick_1">
     <g id="line2d_6">
      <defs>
       <path d="M 0 0 
L -3.5 0 
" id="mf837914fff" style="stroke:#000000;stroke-width:0.8;"/>
      </defs>
      <g>
       <use style="stroke:#000000;stroke-width:0.8;" x="144" xlink:href="#mf837914fff" y="210"/>
      </g>
     </g>
     <g id="text_6">
      <!-- 0 -->
      <g transform="translate(129.365 214.559063)scale(0.12 -0.12)">
       <defs>
        <path d="M 31.78125 66.40625 
Q 24.171875 66.40625 20.328125 58.90625 
Q 16.5 51.421875 16.5 36.375 
Q 16.5 21.390625 20.328125 13.890625 
Q 24.171875 6.390625 31.78125 6.390625 
Q 39.453125 6.390625 43.28125 13.890625 
Q 47.125 21.390625 47.125 36.375 
Q 47.125 51.421875 43.28125 58.90625 
Q 39.453125 66.40625 31.78125 66.40625 
z
M 31.78125 74.21875 
Q 44.046875 74.21875 50.515625 64.515625 
Q 56.984375 54.828125 56.984375 36.375 
Q 56.984375 17.96875 50.515625 8.265625 
Q 44.046875 -1.421875 31.78125 -1.421875 
Q 19.53125 -1.421875 13.0625 8.265625 
Q 6.59375 17.96875 6.59375 36.375 
Q 6.59375 54.828125 13.0625 64.515625 
Q 19.53125 74.21875 31.78125 74.21875 
z
" id="DejaVuSans-48"/>
       </defs>
       <use xlink:href="#DejaVuSans-48"/>
      </g>
     </g>
    </g>
    <g id="ytick_2">
     <g id="line2d_7">
      <g>
       <use style="stroke:#000000;stroke-width:0.8;" x="144" xlink:href="#mf837914fff" y="179.619846"/>
      </g>
     </g>
     <g id="text_7">
      <!-- 250 -->
      <g transform="translate(114.095 184.178908)scale(0.12 -0.12)">
       <defs>
        <path d="M 19.1875 8.296875 
L 53.609375 8.296875 
L 53.609375 0 
L 7.328125 0 
L 7.328125 8.296875 
Q 12.9375 14.109375 22.625 23.890625 
Q 32.328125 33.6875 34.8125 36.53125 
Q 39.546875 41.84375 41.421875 45.53125 
Q 43.3125 49.21875 43.3125 52.78125 
Q 43.3125 58.59375 39.234375 62.25 
Q 35.15625 65.921875 28.609375 65.921875 
Q 23.96875 65.921875 18.8125 64.3125 
Q 13.671875 62.703125 7.8125 59.421875 
L 7.8125 69.390625 
Q 13.765625 71.78125 18.9375 73 
Q 24.125 74.21875 28.421875 74.21875 
Q 39.75 74.21875 46.484375 68.546875 
Q 53.21875 62.890625 53.21875 53.421875 
Q 53.21875 48.921875 51.53125 44.890625 
Q 49.859375 40.875 45.40625 35.40625 
Q 44.1875 33.984375 37.640625 27.21875 
Q 31.109375 20.453125 19.1875 8.296875 
z
" id="DejaVuSans-50"/>
        <path d="M 10.796875 72.90625 
L 49.515625 72.90625 
L 49.515625 64.59375 
L 19.828125 64.59375 
L 19.828125 46.734375 
Q 21.96875 47.46875 24.109375 47.828125 
Q 26.265625 48.1875 28.421875 48.1875 
Q 40.625 48.1875 47.75 41.5 
Q 54.890625 34.8125 54.890625 23.390625 
Q 54.890625 11.625 47.5625 5.09375 
Q 40.234375 -1.421875 26.90625 -1.421875 
Q 22.3125 -1.421875 17.546875 -0.640625 
Q 12.796875 0.140625 7.71875 1.703125 
L 7.71875 11.625 
Q 12.109375 9.234375 16.796875 8.0625 
Q 21.484375 6.890625 26.703125 6.890625 
Q 35.15625 6.890625 40.078125 11.328125 
Q 45.015625 15.765625 45.015625 23.390625 
Q 45.015625 31 40.078125 35.4375 
Q 35.15625 39.890625 26.703125 39.890625 
Q 22.75 39.890625 18.8125 39.015625 
Q 14.890625 38.140625 10.796875 36.28125 
z
" id="DejaVuSans-53"/>
       </defs>
       <use xlink:href="#DejaVuSans-50"/>
       <use x="63.623047" xlink:href="#DejaVuSans-53"/>
       <use x="127.246094" xlink:href="#DejaVuSans-48"/>
      </g>
     </g>
    </g>
    <g id="ytick_3">
     <g id="line2d_8">
      <g>
       <use style="stroke:#000000;stroke-width:0.8;" x="144" xlink:href="#mf837914fff" y="149.239691"/>
      </g>
     </g>
     <g id="text_8">
      <!-- 500 -->
      <g transform="translate(114.095 153.798754)scale(0.12 -0.12)">
       <use xlink:href="#DejaVuSans-53"/>
       <use x="63.623047" xlink:href="#DejaVuSans-48"/>
       <use x="127.246094" xlink:href="#DejaVuSans-48"/>
      </g>
     </g>
    </g>
    <g id="ytick_4">
     <g id="line2d_9">
      <g>
       <use style="stroke:#000000;stroke-width:0.8;" x="144" xlink:href="#mf837914fff" y="118.859537"/>
      </g>
     </g>
     <g id="text_9">
      <!-- 750 -->
      <g transform="translate(114.095 123.4186)scale(0.12 -0.12)">
       <defs>
        <path d="M 8.203125 72.90625 
L 55.078125 72.90625 
L 55.078125 68.703125 
L 28.609375 0 
L 18.3125 0 
L 43.21875 64.59375 
L 8.203125 64.59375 
z
" id="DejaVuSans-55"/>
       </defs>
       <use xlink:href="#DejaVuSans-55"/>
       <use x="63.623047" xlink:href="#DejaVuSans-53"/>
       <use x="127.246094" xlink:href="#DejaVuSans-48"/>
      </g>
     </g>
    </g>
    <g id="ytick_5">
     <g id="line2d_10">
      <g>
       <use style="stroke:#000000;stroke-width:0.8;" x="144" xlink:href="#mf837914fff" y="88.479383"/>
      </g>
     </g>
     <g id="text_10">
      <!-- 1000 -->
      <g transform="translate(106.46 93.038445)scale(0.12 -0.12)">
       <defs>
        <path d="M 12.40625 8.296875 
L 28.515625 8.296875 
L 28.515625 63.921875 
L 10.984375 60.40625 
L 10.984375 69.390625 
L 28.421875 72.90625 
L 38.28125 72.90625 
L 38.28125 8.296875 
L 54.390625 8.296875 
L 54.390625 0 
L 12.40625 0 
z
" id="DejaVuSans-49"/>
       </defs>
       <use xlink:href="#DejaVuSans-49"/>
       <use x="63.623047" xlink:href="#DejaVuSans-48"/>
       <use x="127.246094" xlink:href="#DejaVuSans-48"/>
       <use x="190.869141" xlink:href="#DejaVuSans-48"/>
      </g>
     </g>
    </g>
    <g id="ytick_6">
     <g id="line2d_11">
      <g>
       <use style="stroke:#000000;stroke-width:0.8;" x="144" xlink:href="#mf837914fff" y="58.099228"/>
      </g>
     </g>
     <g id="text_11">
      <!-- 1250 -->
      <g transform="translate(106.46 62.658291)scale(0.12 -0.12)">
       <use xlink:href="#DejaVuSans-49"/>
       <use x="63.623047" xlink:href="#DejaVuSans-50"/>
       <use x="127.246094" xlink:href="#DejaVuSans-53"/>
       <use x="190.869141" xlink:href="#DejaVuSans-48"/>
      </g>
     </g>
    </g>
   </g>
   <g id="patch_18">
    <path d="M 144 210 
L 144 28.8 
" style="fill:none;stroke:#000000;stroke-linecap:square;stroke-linejoin:miter;stroke-width:0.8;"/>
   </g>
   <g id="patch_19">
    <path d="M 406.588235 210 
L 406.588235 28.8 
" style="fill:none;stroke:#000000;stroke-linecap:square;stroke-linejoin:miter;stroke-width:0.8;"/>
   </g>
   <g id="patch_20">
    <path d="M 144 210 
L 406.588235 210 
" style="fill:none;stroke:#000000;stroke-linecap:square;stroke-linejoin:miter;stroke-width:0.8;"/>
   </g>
   <g id="patch_21">
    <path d="M 144 28.8 
L 406.588235 28.8 
" style="fill:none;stroke:#000000;stroke-linecap:square;stroke-linejoin:miter;stroke-width:0.8;"/>
   </g>
   <g id="text_12">
    <!-- Role 1 -->
    <g transform="translate(248.868415 22.8)scale(0.17 -0.17)">
     <defs>
      <path d="M 30.609375 48.390625 
Q 23.390625 48.390625 19.1875 42.75 
Q 14.984375 37.109375 14.984375 27.296875 
Q 14.984375 17.484375 19.15625 11.84375 
Q 23.34375 6.203125 30.609375 6.203125 
Q 37.796875 6.203125 41.984375 11.859375 
Q 46.1875 17.53125 46.1875 27.296875 
Q 46.1875 37.015625 41.984375 42.703125 
Q 37.796875 48.390625 30.609375 48.390625 
z
M 30.609375 56 
Q 42.328125 56 49.015625 48.375 
Q 55.71875 40.765625 55.71875 27.296875 
Q 55.71875 13.875 49.015625 6.21875 
Q 42.328125 -1.421875 30.609375 -1.421875 
Q 18.84375 -1.421875 12.171875 6.21875 
Q 5.515625 13.875 5.515625 27.296875 
Q 5.515625 40.765625 12.171875 48.375 
Q 18.84375 56 30.609375 56 
z
" id="DejaVuSans-111"/>
      <path d="M 9.421875 75.984375 
L 18.40625 75.984375 
L 18.40625 0 
L 9.421875 0 
z
" id="DejaVuSans-108"/>
      <path d="M 56.203125 29.59375 
L 56.203125 25.203125 
L 14.890625 25.203125 
Q 15.484375 15.921875 20.484375 11.0625 
Q 25.484375 6.203125 34.421875 6.203125 
Q 39.59375 6.203125 44.453125 7.46875 
Q 49.3125 8.734375 54.109375 11.28125 
L 54.109375 2.78125 
Q 49.265625 0.734375 44.1875 -0.34375 
Q 39.109375 -1.421875 33.890625 -1.421875 
Q 20.796875 -1.421875 13.15625 6.1875 
Q 5.515625 13.8125 5.515625 26.8125 
Q 5.515625 40.234375 12.765625 48.109375 
Q 20.015625 56 32.328125 56 
Q 43.359375 56 49.78125 48.890625 
Q 56.203125 41.796875 56.203125 29.59375 
z
M 47.21875 32.234375 
Q 47.125 39.59375 43.09375 43.984375 
Q 39.0625 48.390625 32.421875 48.390625 
Q 24.90625 48.390625 20.390625 44.140625 
Q 15.875 39.890625 15.1875 32.171875 
z
" id="DejaVuSans-101"/>
      <path id="DejaVuSans-32"/>
     </defs>
     <use xlink:href="#DejaVuSans-82"/>
     <use x="64.982422" xlink:href="#DejaVuSans-111"/>
     <use x="126.164062" xlink:href="#DejaVuSans-108"/>
     <use x="153.947266" xlink:href="#DejaVuSans-101"/>
     <use x="215.470703" xlink:href="#DejaVuSans-32"/>
     <use x="247.257812" xlink:href="#DejaVuSans-49"/>
    </g>
   </g>
   <g id="legend_1">
    <g id="patch_22">
     <path d="M 346.23511 80.834375 
L 399.588235 80.834375 
Q 401.588235 80.834375 401.588235 78.834375 
L 401.588235 35.8 
Q 401.588235 33.8 399.588235 33.8 
L 346.23511 33.8 
Q 344.23511 33.8 344.23511 35.8 
L 344.23511 78.834375 
Q 344.23511 80.834375 346.23511 80.834375 
z
" style="fill:#ffffff;opacity:0.8;stroke:#cccccc;stroke-linejoin:miter;"/>
    </g>
    <g id="patch_23">
     <path d="M 348.23511 45.398438 
L 368.23511 45.398438 
L 368.23511 38.398438 
L 348.23511 38.398438 
z
" style="fill:#7fc3c0;"/>
    </g>
    <g id="text_13">
     <!-- M11 -->
     <g transform="translate(376.23511 45.398438)scale(0.1 -0.1)">
      <use xlink:href="#DejaVuSans-77"/>
      <use x="86.279297" xlink:href="#DejaVuSans-49"/>
      <use x="149.902344" xlink:href="#DejaVuSans-49"/>
     </g>
    </g>
    <g id="patch_24">
     <path d="M 348.23511 60.076563 
L 368.23511 60.076563 
L 368.23511 53.076563 
L 348.23511 53.076563 
z
" style="fill:#cfb845;"/>
    </g>
    <g id="text_14">
     <!-- M16 -->
     <g transform="translate(376.23511 60.076563)scale(0.1 -0.1)">
      <defs>
       <path d="M 33.015625 40.375 
Q 26.375 40.375 22.484375 35.828125 
Q 18.609375 31.296875 18.609375 23.390625 
Q 18.609375 15.53125 22.484375 10.953125 
Q 26.375 6.390625 33.015625 6.390625 
Q 39.65625 6.390625 43.53125 10.953125 
Q 47.40625 15.53125 47.40625 23.390625 
Q 47.40625 31.296875 43.53125 35.828125 
Q 39.65625 40.375 33.015625 40.375 
z
M 52.59375 71.296875 
L 52.59375 62.3125 
Q 48.875 64.0625 45.09375 64.984375 
Q 41.3125 65.921875 37.59375 65.921875 
Q 27.828125 65.921875 22.671875 59.328125 
Q 17.53125 52.734375 16.796875 39.40625 
Q 19.671875 43.65625 24.015625 45.921875 
Q 28.375 48.1875 33.59375 48.1875 
Q 44.578125 48.1875 50.953125 41.515625 
Q 57.328125 34.859375 57.328125 23.390625 
Q 57.328125 12.15625 50.6875 5.359375 
Q 44.046875 -1.421875 33.015625 -1.421875 
Q 20.359375 -1.421875 13.671875 8.265625 
Q 6.984375 17.96875 6.984375 36.375 
Q 6.984375 53.65625 15.1875 63.9375 
Q 23.390625 74.21875 37.203125 74.21875 
Q 40.921875 74.21875 44.703125 73.484375 
Q 48.484375 72.75 52.59375 71.296875 
z
" id="DejaVuSans-54"/>
      </defs>
      <use xlink:href="#DejaVuSans-77"/>
      <use x="86.279297" xlink:href="#DejaVuSans-49"/>
      <use x="149.902344" xlink:href="#DejaVuSans-54"/>
     </g>
    </g>
    <g id="patch_25">
     <path d="M 348.23511 74.754688 
L 368.23511 74.754688 
L 368.23511 67.754688 
L 348.23511 67.754688 
z
" style="fill:#141414;"/>
    </g>
    <g id="text_15">
     <!-- M66 -->
     <g transform="translate(376.23511 74.754688)scale(0.1 -0.1)">
      <use xlink:href="#DejaVuSans-77"/>
      <use x="86.279297" xlink:href="#DejaVuSans-54"/>
      <use x="149.902344" xlink:href="#DejaVuSans-54"/>
     </g>
    </g>
   </g>
  </g>
  <g id="axes_2">
   <g id="patch_26">
    <path d="M 459.105882 210 
L 721.694118 210 
L 721.694118 28.8 
L 459.105882 28.8 
z
" style="fill:#ffffff;"/>
   </g>
   <g id="patch_27">
    <path clip-path="url(#pe827d022ba)" d="M 471.041711 210 
L 481.420693 210 
L 481.420693 37.428571 
L 471.041711 37.428571 
z
" style="fill:#7fc3c0;"/>
   </g>
   <g id="patch_28">
    <path clip-path="url(#pe827d022ba)" d="M 522.936619 210 
L 533.315601 210 
L 533.315601 188.065393 
L 522.936619 188.065393 
z
" style="fill:#7fc3c0;"/>
   </g>
   <g id="patch_29">
    <path clip-path="url(#pe827d022ba)" d="M 574.831528 210 
L 585.210509 210 
L 585.210509 202.421609 
L 574.831528 202.421609 
z
" style="fill:#7fc3c0;"/>
   </g>
   <g id="patch_30">
    <path clip-path="url(#pe827d022ba)" d="M 626.726436 210 
L 637.105417 210 
L 637.105417 206.991131 
L 626.726436 206.991131 
z
" style="fill:#7fc3c0;"/>
   </g>
   <g id="patch_31">
    <path clip-path="url(#pe827d022ba)" d="M 678.621344 210 
L 689.000326 210 
L 689.000326 209.703161 
L 678.621344 209.703161 
z
" style="fill:#7fc3c0;"/>
   </g>
   <g id="patch_32">
    <path clip-path="url(#pe827d022ba)" d="M 481.420693 210 
L 491.799674 210 
L 491.799674 93.765025 
L 481.420693 93.765025 
z
" style="fill:#cfb845;"/>
   </g>
   <g id="patch_33">
    <path clip-path="url(#pe827d022ba)" d="M 533.315601 210 
L 543.694583 210 
L 543.694583 192.385301 
L 533.315601 192.385301 
z
" style="fill:#cfb845;"/>
   </g>
   <g id="patch_34">
    <path clip-path="url(#pe827d022ba)" d="M 585.210509 210 
L 595.589491 210 
L 595.589491 204.02499 
L 585.210509 204.02499 
z
" style="fill:#cfb845;"/>
   </g>
   <g id="patch_35">
    <path clip-path="url(#pe827d022ba)" d="M 637.105417 210 
L 647.484399 210 
L 647.484399 208.086288 
L 637.105417 208.086288 
z
" style="fill:#cfb845;"/>
   </g>
   <g id="patch_36">
    <path clip-path="url(#pe827d022ba)" d="M 689.000326 210 
L 699.379307 210 
L 699.379307 209.386083 
L 689.000326 209.386083 
z
" style="fill:#cfb845;"/>
   </g>
   <g id="patch_37">
    <path clip-path="url(#pe827d022ba)" d="M 491.799674 210 
L 502.178656 210 
L 502.178656 89.687985 
L 491.799674 89.687985 
z
" style="fill:#141414;"/>
   </g>
   <g id="patch_38">
    <path clip-path="url(#pe827d022ba)" d="M 543.694583 210 
L 554.073564 210 
L 554.073564 191.856838 
L 543.694583 191.856838 
z
" style="fill:#141414;"/>
   </g>
   <g id="patch_39">
    <path clip-path="url(#pe827d022ba)" d="M 595.589491 210 
L 605.968472 210 
L 605.968472 199.26657 
L 595.589491 199.26657 
z
" style="fill:#141414;"/>
   </g>
   <g id="patch_40">
    <path clip-path="url(#pe827d022ba)" d="M 647.484399 210 
L 657.863381 210 
L 657.863381 207.872653 
L 647.484399 207.872653 
z
" style="fill:#141414;"/>
   </g>
   <g id="patch_41">
    <path clip-path="url(#pe827d022ba)" d="M 699.379307 210 
L 709.758289 210 
L 709.758289 209.856078 
L 699.379307 209.856078 
z
" style="fill:#141414;"/>
   </g>
   <g id="matplotlib.axis_3">
    <g id="xtick_6">
     <g id="line2d_12">
      <g>
       <use style="stroke:#000000;stroke-width:0.8;" x="486.610184" xlink:href="#mca3655ed62" y="210"/>
      </g>
     </g>
     <g id="text_16">
      <!-- YUG -->
      <g transform="translate(470.728934 228.397656)scale(0.15 -0.15)">
       <use xlink:href="#DejaVuSans-89"/>
       <use x="61.083984" xlink:href="#DejaVuSans-85"/>
       <use x="134.277344" xlink:href="#DejaVuSans-71"/>
      </g>
     </g>
    </g>
    <g id="xtick_7">
     <g id="line2d_13">
      <g>
       <use style="stroke:#000000;stroke-width:0.8;" x="538.505092" xlink:href="#mca3655ed62" y="210"/>
      </g>
     </g>
     <g id="text_17">
      <!-- IRQ -->
      <g transform="translate(525.177357 228.397656)scale(0.15 -0.15)">
       <defs>
        <path d="M 9.8125 72.90625 
L 19.671875 72.90625 
L 19.671875 0 
L 9.8125 0 
z
" id="DejaVuSans-73"/>
        <path d="M 39.40625 66.21875 
Q 28.65625 66.21875 22.328125 58.203125 
Q 16.015625 50.203125 16.015625 36.375 
Q 16.015625 22.609375 22.328125 14.59375 
Q 28.65625 6.59375 39.40625 6.59375 
Q 50.140625 6.59375 56.421875 14.59375 
Q 62.703125 22.609375 62.703125 36.375 
Q 62.703125 50.203125 56.421875 58.203125 
Q 50.140625 66.21875 39.40625 66.21875 
z
M 53.21875 1.3125 
L 66.21875 -12.890625 
L 54.296875 -12.890625 
L 43.5 -1.21875 
Q 41.890625 -1.3125 41.03125 -1.359375 
Q 40.1875 -1.421875 39.40625 -1.421875 
Q 24.03125 -1.421875 14.8125 8.859375 
Q 5.609375 19.140625 5.609375 36.375 
Q 5.609375 53.65625 14.8125 63.9375 
Q 24.03125 74.21875 39.40625 74.21875 
Q 54.734375 74.21875 63.90625 63.9375 
Q 73.09375 53.65625 73.09375 36.375 
Q 73.09375 23.6875 67.984375 14.640625 
Q 62.890625 5.609375 53.21875 1.3125 
z
" id="DejaVuSans-81"/>
       </defs>
       <use xlink:href="#DejaVuSans-73"/>
       <use x="29.492188" xlink:href="#DejaVuSans-82"/>
       <use x="98.974609" xlink:href="#DejaVuSans-81"/>
      </g>
     </g>
    </g>
    <g id="xtick_8">
     <g id="line2d_14">
      <g>
       <use style="stroke:#000000;stroke-width:0.8;" x="590.4" xlink:href="#mca3655ed62" y="210"/>
      </g>
     </g>
     <g id="text_18">
      <!-- LIB -->
      <g transform="translate(578.862891 228.397656)scale(0.15 -0.15)">
       <defs>
        <path d="M 9.8125 72.90625 
L 19.671875 72.90625 
L 19.671875 8.296875 
L 55.171875 8.296875 
L 55.171875 0 
L 9.8125 0 
z
" id="DejaVuSans-76"/>
        <path d="M 19.671875 34.8125 
L 19.671875 8.109375 
L 35.5 8.109375 
Q 43.453125 8.109375 47.28125 11.40625 
Q 51.125 14.703125 51.125 21.484375 
Q 51.125 28.328125 47.28125 31.5625 
Q 43.453125 34.8125 35.5 34.8125 
z
M 19.671875 64.796875 
L 19.671875 42.828125 
L 34.28125 42.828125 
Q 41.5 42.828125 45.03125 45.53125 
Q 48.578125 48.25 48.578125 53.8125 
Q 48.578125 59.328125 45.03125 62.0625 
Q 41.5 64.796875 34.28125 64.796875 
z
M 9.8125 72.90625 
L 35.015625 72.90625 
Q 46.296875 72.90625 52.390625 68.21875 
Q 58.5 63.53125 58.5 54.890625 
Q 58.5 48.1875 55.375 44.234375 
Q 52.25 40.28125 46.1875 39.3125 
Q 53.46875 37.75 57.5 32.78125 
Q 61.53125 27.828125 61.53125 20.40625 
Q 61.53125 10.640625 54.890625 5.3125 
Q 48.25 0 35.984375 0 
L 9.8125 0 
z
" id="DejaVuSans-66"/>
       </defs>
       <use xlink:href="#DejaVuSans-76"/>
       <use x="55.712891" xlink:href="#DejaVuSans-73"/>
       <use x="85.205078" xlink:href="#DejaVuSans-66"/>
      </g>
     </g>
    </g>
    <g id="xtick_9">
     <g id="line2d_15">
      <g>
       <use style="stroke:#000000;stroke-width:0.8;" x="642.294908" xlink:href="#mca3655ed62" y="210"/>
      </g>
     </g>
     <g id="text_19">
      <!-- AFG -->
      <g transform="translate(627.039439 228.397656)scale(0.15 -0.15)">
       <use xlink:href="#DejaVuSans-65"/>
       <use x="68.408203" xlink:href="#DejaVuSans-70"/>
       <use x="125.927734" xlink:href="#DejaVuSans-71"/>
      </g>
     </g>
    </g>
    <g id="xtick_10">
     <g id="line2d_16">
      <g>
       <use style="stroke:#000000;stroke-width:0.8;" x="694.189816" xlink:href="#mca3655ed62" y="210"/>
      </g>
     </g>
     <g id="text_20">
      <!-- RUS -->
      <g transform="translate(678.728098 228.397656)scale(0.15 -0.15)">
       <use xlink:href="#DejaVuSans-82"/>
       <use x="69.482422" xlink:href="#DejaVuSans-85"/>
       <use x="142.675781" xlink:href="#DejaVuSans-83"/>
      </g>
     </g>
    </g>
   </g>
   <g id="matplotlib.axis_4">
    <g id="ytick_7">
     <g id="line2d_17">
      <g>
       <use style="stroke:#000000;stroke-width:0.8;" x="459.105882" xlink:href="#mf837914fff" y="210"/>
      </g>
     </g>
     <g id="text_21">
      <!-- 0 -->
      <g transform="translate(445.743382 213.799219)scale(0.1 -0.1)">
       <use xlink:href="#DejaVuSans-48"/>
      </g>
     </g>
    </g>
    <g id="ytick_8">
     <g id="line2d_18">
      <g>
       <use style="stroke:#000000;stroke-width:0.8;" x="459.105882" xlink:href="#mf837914fff" y="187.512193"/>
      </g>
     </g>
     <g id="text_22">
      <!-- 1000 -->
      <g transform="translate(426.655882 191.311412)scale(0.1 -0.1)">
       <use xlink:href="#DejaVuSans-49"/>
       <use x="63.623047" xlink:href="#DejaVuSans-48"/>
       <use x="127.246094" xlink:href="#DejaVuSans-48"/>
       <use x="190.869141" xlink:href="#DejaVuSans-48"/>
      </g>
     </g>
    </g>
    <g id="ytick_9">
     <g id="line2d_19">
      <g>
       <use style="stroke:#000000;stroke-width:0.8;" x="459.105882" xlink:href="#mf837914fff" y="165.024387"/>
      </g>
     </g>
     <g id="text_23">
      <!-- 2000 -->
      <g transform="translate(426.655882 168.823605)scale(0.1 -0.1)">
       <use xlink:href="#DejaVuSans-50"/>
       <use x="63.623047" xlink:href="#DejaVuSans-48"/>
       <use x="127.246094" xlink:href="#DejaVuSans-48"/>
       <use x="190.869141" xlink:href="#DejaVuSans-48"/>
      </g>
     </g>
    </g>
    <g id="ytick_10">
     <g id="line2d_20">
      <g>
       <use style="stroke:#000000;stroke-width:0.8;" x="459.105882" xlink:href="#mf837914fff" y="142.53658"/>
      </g>
     </g>
     <g id="text_24">
      <!-- 3000 -->
      <g transform="translate(426.655882 146.335799)scale(0.1 -0.1)">
       <defs>
        <path d="M 40.578125 39.3125 
Q 47.65625 37.796875 51.625 33 
Q 55.609375 28.21875 55.609375 21.1875 
Q 55.609375 10.40625 48.1875 4.484375 
Q 40.765625 -1.421875 27.09375 -1.421875 
Q 22.515625 -1.421875 17.65625 -0.515625 
Q 12.796875 0.390625 7.625 2.203125 
L 7.625 11.71875 
Q 11.71875 9.328125 16.59375 8.109375 
Q 21.484375 6.890625 26.8125 6.890625 
Q 36.078125 6.890625 40.9375 10.546875 
Q 45.796875 14.203125 45.796875 21.1875 
Q 45.796875 27.640625 41.28125 31.265625 
Q 36.765625 34.90625 28.71875 34.90625 
L 20.21875 34.90625 
L 20.21875 43.015625 
L 29.109375 43.015625 
Q 36.375 43.015625 40.234375 45.921875 
Q 44.09375 48.828125 44.09375 54.296875 
Q 44.09375 59.90625 40.109375 62.90625 
Q 36.140625 65.921875 28.71875 65.921875 
Q 24.65625 65.921875 20.015625 65.03125 
Q 15.375 64.15625 9.8125 62.3125 
L 9.8125 71.09375 
Q 15.4375 72.65625 20.34375 73.4375 
Q 25.25 74.21875 29.59375 74.21875 
Q 40.828125 74.21875 47.359375 69.109375 
Q 53.90625 64.015625 53.90625 55.328125 
Q 53.90625 49.265625 50.4375 45.09375 
Q 46.96875 40.921875 40.578125 39.3125 
z
" id="DejaVuSans-51"/>
       </defs>
       <use xlink:href="#DejaVuSans-51"/>
       <use x="63.623047" xlink:href="#DejaVuSans-48"/>
       <use x="127.246094" xlink:href="#DejaVuSans-48"/>
       <use x="190.869141" xlink:href="#DejaVuSans-48"/>
      </g>
     </g>
    </g>
    <g id="ytick_11">
     <g id="line2d_21">
      <g>
       <use style="stroke:#000000;stroke-width:0.8;" x="459.105882" xlink:href="#mf837914fff" y="120.048773"/>
      </g>
     </g>
     <g id="text_25">
      <!-- 4000 -->
      <g transform="translate(426.655882 123.847992)scale(0.1 -0.1)">
       <defs>
        <path d="M 37.796875 64.3125 
L 12.890625 25.390625 
L 37.796875 25.390625 
z
M 35.203125 72.90625 
L 47.609375 72.90625 
L 47.609375 25.390625 
L 58.015625 25.390625 
L 58.015625 17.1875 
L 47.609375 17.1875 
L 47.609375 0 
L 37.796875 0 
L 37.796875 17.1875 
L 4.890625 17.1875 
L 4.890625 26.703125 
z
" id="DejaVuSans-52"/>
       </defs>
       <use xlink:href="#DejaVuSans-52"/>
       <use x="63.623047" xlink:href="#DejaVuSans-48"/>
       <use x="127.246094" xlink:href="#DejaVuSans-48"/>
       <use x="190.869141" xlink:href="#DejaVuSans-48"/>
      </g>
     </g>
    </g>
    <g id="ytick_12">
     <g id="line2d_22">
      <g>
       <use style="stroke:#000000;stroke-width:0.8;" x="459.105882" xlink:href="#mf837914fff" y="97.560967"/>
      </g>
     </g>
     <g id="text_26">
      <!-- 5000 -->
      <g transform="translate(426.655882 101.360185)scale(0.1 -0.1)">
       <use xlink:href="#DejaVuSans-53"/>
       <use x="63.623047" xlink:href="#DejaVuSans-48"/>
       <use x="127.246094" xlink:href="#DejaVuSans-48"/>
       <use x="190.869141" xlink:href="#DejaVuSans-48"/>
      </g>
     </g>
    </g>
    <g id="ytick_13">
     <g id="line2d_23">
      <g>
       <use style="stroke:#000000;stroke-width:0.8;" x="459.105882" xlink:href="#mf837914fff" y="75.07316"/>
      </g>
     </g>
     <g id="text_27">
      <!-- 6000 -->
      <g transform="translate(426.655882 78.872379)scale(0.1 -0.1)">
       <use xlink:href="#DejaVuSans-54"/>
       <use x="63.623047" xlink:href="#DejaVuSans-48"/>
       <use x="127.246094" xlink:href="#DejaVuSans-48"/>
       <use x="190.869141" xlink:href="#DejaVuSans-48"/>
      </g>
     </g>
    </g>
    <g id="ytick_14">
     <g id="line2d_24">
      <g>
       <use style="stroke:#000000;stroke-width:0.8;" x="459.105882" xlink:href="#mf837914fff" y="52.585353"/>
      </g>
     </g>
     <g id="text_28">
      <!-- 7000 -->
      <g transform="translate(426.655882 56.384572)scale(0.1 -0.1)">
       <use xlink:href="#DejaVuSans-55"/>
       <use x="63.623047" xlink:href="#DejaVuSans-48"/>
       <use x="127.246094" xlink:href="#DejaVuSans-48"/>
       <use x="190.869141" xlink:href="#DejaVuSans-48"/>
      </g>
     </g>
    </g>
    <g id="ytick_15">
     <g id="line2d_25">
      <g>
       <use style="stroke:#000000;stroke-width:0.8;" x="459.105882" xlink:href="#mf837914fff" y="30.097546"/>
      </g>
     </g>
     <g id="text_29">
      <!-- 8000 -->
      <g transform="translate(426.655882 33.896765)scale(0.1 -0.1)">
       <defs>
        <path d="M 31.78125 34.625 
Q 24.75 34.625 20.71875 30.859375 
Q 16.703125 27.09375 16.703125 20.515625 
Q 16.703125 13.921875 20.71875 10.15625 
Q 24.75 6.390625 31.78125 6.390625 
Q 38.8125 6.390625 42.859375 10.171875 
Q 46.921875 13.96875 46.921875 20.515625 
Q 46.921875 27.09375 42.890625 30.859375 
Q 38.875 34.625 31.78125 34.625 
z
M 21.921875 38.8125 
Q 15.578125 40.375 12.03125 44.71875 
Q 8.5 49.078125 8.5 55.328125 
Q 8.5 64.0625 14.71875 69.140625 
Q 20.953125 74.21875 31.78125 74.21875 
Q 42.671875 74.21875 48.875 69.140625 
Q 55.078125 64.0625 55.078125 55.328125 
Q 55.078125 49.078125 51.53125 44.71875 
Q 48 40.375 41.703125 38.8125 
Q 48.828125 37.15625 52.796875 32.3125 
Q 56.78125 27.484375 56.78125 20.515625 
Q 56.78125 9.90625 50.3125 4.234375 
Q 43.84375 -1.421875 31.78125 -1.421875 
Q 19.734375 -1.421875 13.25 4.234375 
Q 6.78125 9.90625 6.78125 20.515625 
Q 6.78125 27.484375 10.78125 32.3125 
Q 14.796875 37.15625 21.921875 38.8125 
z
M 18.3125 54.390625 
Q 18.3125 48.734375 21.84375 45.5625 
Q 25.390625 42.390625 31.78125 42.390625 
Q 38.140625 42.390625 41.71875 45.5625 
Q 45.3125 48.734375 45.3125 54.390625 
Q 45.3125 60.0625 41.71875 63.234375 
Q 38.140625 66.40625 31.78125 66.40625 
Q 25.390625 66.40625 21.84375 63.234375 
Q 18.3125 60.0625 18.3125 54.390625 
z
" id="DejaVuSans-56"/>
       </defs>
       <use xlink:href="#DejaVuSans-56"/>
       <use x="63.623047" xlink:href="#DejaVuSans-48"/>
       <use x="127.246094" xlink:href="#DejaVuSans-48"/>
       <use x="190.869141" xlink:href="#DejaVuSans-48"/>
      </g>
     </g>
    </g>
   </g>
   <g id="patch_42">
    <path d="M 459.105882 210 
L 459.105882 28.8 
" style="fill:none;stroke:#000000;stroke-linecap:square;stroke-linejoin:miter;stroke-width:0.8;"/>
   </g>
   <g id="patch_43">
    <path d="M 721.694118 210 
L 721.694118 28.8 
" style="fill:none;stroke:#000000;stroke-linecap:square;stroke-linejoin:miter;stroke-width:0.8;"/>
   </g>
   <g id="patch_44">
    <path d="M 459.105882 210 
L 721.694118 210 
" style="fill:none;stroke:#000000;stroke-linecap:square;stroke-linejoin:miter;stroke-width:0.8;"/>
   </g>
   <g id="patch_45">
    <path d="M 459.105882 28.8 
L 721.694118 28.8 
" style="fill:none;stroke:#000000;stroke-linecap:square;stroke-linejoin:miter;stroke-width:0.8;"/>
   </g>
   <g id="text_30">
    <!-- Role 2 -->
    <g transform="translate(563.974297 22.8)scale(0.17 -0.17)">
     <use xlink:href="#DejaVuSans-82"/>
     <use x="64.982422" xlink:href="#DejaVuSans-111"/>
     <use x="126.164062" xlink:href="#DejaVuSans-108"/>
     <use x="153.947266" xlink:href="#DejaVuSans-101"/>
     <use x="215.470703" xlink:href="#DejaVuSans-32"/>
     <use x="247.257812" xlink:href="#DejaVuSans-50"/>
    </g>
   </g>
  </g>
  <g id="axes_3">
   <g id="patch_46">
    <path d="M 774.211765 210 
L 1036.8 210 
L 1036.8 28.8 
L 774.211765 28.8 
z
" style="fill:#ffffff;"/>
   </g>
   <g id="patch_47">
    <path clip-path="url(#p00b1a6aff0)" d="M 786.147594 210 
L 796.526575 210 
L 796.526575 67.150103 
L 786.147594 67.150103 
z
" style="fill:#7fc3c0;"/>
   </g>
   <g id="patch_48">
    <path clip-path="url(#p00b1a6aff0)" d="M 838.042502 210 
L 848.421483 210 
L 848.421483 60.208502 
L 838.042502 60.208502 
z
" style="fill:#7fc3c0;"/>
   </g>
   <g id="patch_49">
    <path clip-path="url(#p00b1a6aff0)" d="M 889.93741 210 
L 900.316392 210 
L 900.316392 78.82706 
L 889.93741 78.82706 
z
" style="fill:#7fc3c0;"/>
   </g>
   <g id="patch_50">
    <path clip-path="url(#p00b1a6aff0)" d="M 941.832318 210 
L 952.2113 210 
L 952.2113 121.893685 
L 941.832318 121.893685 
z
" style="fill:#7fc3c0;"/>
   </g>
   <g id="patch_51">
    <path clip-path="url(#p00b1a6aff0)" d="M 993.727226 210 
L 1004.106208 210 
L 1004.106208 118.952025 
L 993.727226 118.952025 
z
" style="fill:#7fc3c0;"/>
   </g>
   <g id="patch_52">
    <path clip-path="url(#p00b1a6aff0)" d="M 796.526575 210 
L 806.905557 210 
L 806.905557 37.428571 
L 796.526575 37.428571 
z
" style="fill:#cfb845;"/>
   </g>
   <g id="patch_53">
    <path clip-path="url(#p00b1a6aff0)" d="M 848.421483 210 
L 858.800465 210 
L 858.800465 110.862459 
L 848.421483 110.862459 
z
" style="fill:#cfb845;"/>
   </g>
   <g id="patch_54">
    <path clip-path="url(#p00b1a6aff0)" d="M 900.316392 210 
L 910.695373 210 
L 910.695373 117.427384 
L 900.316392 117.427384 
z
" style="fill:#cfb845;"/>
   </g>
   <g id="patch_55">
    <path clip-path="url(#p00b1a6aff0)" d="M 952.2113 210 
L 962.590281 210 
L 962.590281 143.974075 
L 952.2113 143.974075 
z
" style="fill:#cfb845;"/>
   </g>
   <g id="patch_56">
    <path clip-path="url(#p00b1a6aff0)" d="M 1004.106208 210 
L 1014.485189 210 
L 1014.485189 143.489777 
L 1004.106208 143.489777 
z
" style="fill:#cfb845;"/>
   </g>
   <g id="patch_57">
    <path clip-path="url(#p00b1a6aff0)" d="M 806.905557 210 
L 817.284538 210 
L 817.284538 111.023891 
L 806.905557 111.023891 
z
" style="fill:#141414;"/>
   </g>
   <g id="patch_58">
    <path clip-path="url(#p00b1a6aff0)" d="M 858.800465 210 
L 869.179447 210 
L 869.179447 94.575705 
L 858.800465 94.575705 
z
" style="fill:#141414;"/>
   </g>
   <g id="patch_59">
    <path clip-path="url(#p00b1a6aff0)" d="M 910.695373 210 
L 921.074355 210 
L 921.074355 105.302003 
L 910.695373 105.302003 
z
" style="fill:#141414;"/>
   </g>
   <g id="patch_60">
    <path clip-path="url(#p00b1a6aff0)" d="M 962.590281 210 
L 972.969263 210 
L 972.969263 142.610866 
L 962.590281 142.610866 
z
" style="fill:#141414;"/>
   </g>
   <g id="patch_61">
    <path clip-path="url(#p00b1a6aff0)" d="M 1014.485189 210 
L 1024.864171 210 
L 1024.864171 148.440376 
L 1014.485189 148.440376 
z
" style="fill:#141414;"/>
   </g>
   <g id="matplotlib.axis_5">
    <g id="xtick_11">
     <g id="line2d_26">
      <g>
       <use style="stroke:#000000;stroke-width:0.8;" x="801.716066" xlink:href="#mca3655ed62" y="210"/>
      </g>
     </g>
     <g id="text_31">
      <!-- USA -->
      <g transform="translate(786.194582 228.397656)scale(0.15 -0.15)">
       <use xlink:href="#DejaVuSans-85"/>
       <use x="73.193359" xlink:href="#DejaVuSans-83"/>
       <use x="138.544922" xlink:href="#DejaVuSans-65"/>
      </g>
     </g>
    </g>
    <g id="xtick_12">
     <g id="line2d_27">
      <g>
       <use style="stroke:#000000;stroke-width:0.8;" x="853.610974" xlink:href="#mca3655ed62" y="210"/>
      </g>
     </g>
     <g id="text_32">
      <!-- UKG -->
      <g transform="translate(837.392224 228.397656)scale(0.15 -0.15)">
       <use xlink:href="#DejaVuSans-85"/>
       <use x="73.193359" xlink:href="#DejaVuSans-75"/>
       <use x="138.769531" xlink:href="#DejaVuSans-71"/>
      </g>
     </g>
    </g>
    <g id="xtick_13">
     <g id="line2d_28">
      <g>
       <use style="stroke:#000000;stroke-width:0.8;" x="905.505882" xlink:href="#mca3655ed62" y="210"/>
      </g>
     </g>
     <g id="text_33">
      <!-- FRN -->
      <g transform="translate(890.369945 228.397656)scale(0.15 -0.15)">
       <use xlink:href="#DejaVuSans-70"/>
       <use x="57.519531" xlink:href="#DejaVuSans-82"/>
       <use x="127.001953" xlink:href="#DejaVuSans-78"/>
      </g>
     </g>
    </g>
    <g id="xtick_14">
     <g id="line2d_29">
      <g>
       <use style="stroke:#000000;stroke-width:0.8;" x="957.400791" xlink:href="#mca3655ed62" y="210"/>
      </g>
     </g>
     <g id="text_34">
      <!-- ITA -->
      <g transform="translate(946.058212 228.397656)scale(0.15 -0.15)">
       <use xlink:href="#DejaVuSans-73"/>
       <use x="29.492188" xlink:href="#DejaVuSans-84"/>
       <use x="82.826172" xlink:href="#DejaVuSans-65"/>
      </g>
     </g>
    </g>
    <g id="xtick_15">
     <g id="line2d_30">
      <g>
       <use style="stroke:#000000;stroke-width:0.8;" x="1009.295699" xlink:href="#mca3655ed62" y="210"/>
      </g>
     </g>
     <g id="text_35">
      <!-- TUR -->
      <g transform="translate(994.014449 228.397656)scale(0.15 -0.15)">
       <use xlink:href="#DejaVuSans-84"/>
       <use x="61.083984" xlink:href="#DejaVuSans-85"/>
       <use x="134.277344" xlink:href="#DejaVuSans-82"/>
      </g>
     </g>
    </g>
   </g>
   <g id="matplotlib.axis_6">
    <g id="ytick_16">
     <g id="line2d_31">
      <g>
       <use style="stroke:#000000;stroke-width:0.8;" x="774.211765" xlink:href="#mf837914fff" y="210"/>
      </g>
     </g>
     <g id="text_36">
      <!-- 0 -->
      <g transform="translate(760.849265 213.799219)scale(0.1 -0.1)">
       <use xlink:href="#DejaVuSans-48"/>
      </g>
     </g>
    </g>
    <g id="ytick_17">
     <g id="line2d_32">
      <g>
       <use style="stroke:#000000;stroke-width:0.8;" x="774.211765" xlink:href="#mf837914fff" y="174.126093"/>
      </g>
     </g>
     <g id="text_37">
      <!-- 200 -->
      <g transform="translate(748.124265 177.925312)scale(0.1 -0.1)">
       <use xlink:href="#DejaVuSans-50"/>
       <use x="63.623047" xlink:href="#DejaVuSans-48"/>
       <use x="127.246094" xlink:href="#DejaVuSans-48"/>
      </g>
     </g>
    </g>
    <g id="ytick_18">
     <g id="line2d_33">
      <g>
       <use style="stroke:#000000;stroke-width:0.8;" x="774.211765" xlink:href="#mf837914fff" y="138.252186"/>
      </g>
     </g>
     <g id="text_38">
      <!-- 400 -->
      <g transform="translate(748.124265 142.051405)scale(0.1 -0.1)">
       <use xlink:href="#DejaVuSans-52"/>
       <use x="63.623047" xlink:href="#DejaVuSans-48"/>
       <use x="127.246094" xlink:href="#DejaVuSans-48"/>
      </g>
     </g>
    </g>
    <g id="ytick_19">
     <g id="line2d_34">
      <g>
       <use style="stroke:#000000;stroke-width:0.8;" x="774.211765" xlink:href="#mf837914fff" y="102.37828"/>
      </g>
     </g>
     <g id="text_39">
      <!-- 600 -->
      <g transform="translate(748.124265 106.177498)scale(0.1 -0.1)">
       <use xlink:href="#DejaVuSans-54"/>
       <use x="63.623047" xlink:href="#DejaVuSans-48"/>
       <use x="127.246094" xlink:href="#DejaVuSans-48"/>
      </g>
     </g>
    </g>
    <g id="ytick_20">
     <g id="line2d_35">
      <g>
       <use style="stroke:#000000;stroke-width:0.8;" x="774.211765" xlink:href="#mf837914fff" y="66.504373"/>
      </g>
     </g>
     <g id="text_40">
      <!-- 800 -->
      <g transform="translate(748.124265 70.303592)scale(0.1 -0.1)">
       <use xlink:href="#DejaVuSans-56"/>
       <use x="63.623047" xlink:href="#DejaVuSans-48"/>
       <use x="127.246094" xlink:href="#DejaVuSans-48"/>
      </g>
     </g>
    </g>
    <g id="ytick_21">
     <g id="line2d_36">
      <g>
       <use style="stroke:#000000;stroke-width:0.8;" x="774.211765" xlink:href="#mf837914fff" y="30.630466"/>
      </g>
     </g>
     <g id="text_41">
      <!-- 1000 -->
      <g transform="translate(741.761765 34.429685)scale(0.1 -0.1)">
       <use xlink:href="#DejaVuSans-49"/>
       <use x="63.623047" xlink:href="#DejaVuSans-48"/>
       <use x="127.246094" xlink:href="#DejaVuSans-48"/>
       <use x="190.869141" xlink:href="#DejaVuSans-48"/>
      </g>
     </g>
    </g>
   </g>
   <g id="patch_62">
    <path d="M 774.211765 210 
L 774.211765 28.8 
" style="fill:none;stroke:#000000;stroke-linecap:square;stroke-linejoin:miter;stroke-width:0.8;"/>
   </g>
   <g id="patch_63">
    <path d="M 1036.8 210 
L 1036.8 28.8 
" style="fill:none;stroke:#000000;stroke-linecap:square;stroke-linejoin:miter;stroke-width:0.8;"/>
   </g>
   <g id="patch_64">
    <path d="M 774.211765 210 
L 1036.8 210 
" style="fill:none;stroke:#000000;stroke-linecap:square;stroke-linejoin:miter;stroke-width:0.8;"/>
   </g>
   <g id="patch_65">
    <path d="M 774.211765 28.8 
L 1036.8 28.8 
" style="fill:none;stroke:#000000;stroke-linecap:square;stroke-linejoin:miter;stroke-width:0.8;"/>
   </g>
   <g id="text_42">
    <!-- Role 3 -->
    <g transform="translate(879.080179 22.8)scale(0.17 -0.17)">
     <use xlink:href="#DejaVuSans-82"/>
     <use x="64.982422" xlink:href="#DejaVuSans-111"/>
     <use x="126.164062" xlink:href="#DejaVuSans-108"/>
     <use x="153.947266" xlink:href="#DejaVuSans-101"/>
     <use x="215.470703" xlink:href="#DejaVuSans-32"/>
     <use x="247.257812" xlink:href="#DejaVuSans-51"/>
    </g>
   </g>
  </g>
 </g>
 <defs>
  <clipPath id="p75dd7c430d">
   <rect height="181.2" width="262.588235" x="144" y="28.8"/>
  </clipPath>
  <clipPath id="pe827d022ba">
   <rect height="181.2" width="262.588235" x="459.105882" y="28.8"/>
  </clipPath>
  <clipPath id="p00b1a6aff0">
   <rect height="181.2" width="262.588235" x="774.211765" y="28.8"/>
  </clipPath>
 </defs>
</svg>
